<?xml version="1.0" encoding="UTF-8" standalone="no"?>
<svg
   xmlns:dc="http://purl.org/dc/elements/1.1/"
   xmlns:cc="http://creativecommons.org/ns#"
   xmlns:rdf="http://www.w3.org/1999/02/22-rdf-syntax-ns#"
   xmlns:svg="http://www.w3.org/2000/svg"
   xmlns="http://www.w3.org/2000/svg"
   viewBox="0 0 566 322"
   height="322"
   width="566"
   xml:space="preserve"
   id="svg10"
   version="1.1"><metadata
     id="metadata16"><rdf:RDF><cc:Work
         rdf:about=""><dc:format>image/svg+xml</dc:format><dc:type
           rdf:resource="http://purl.org/dc/dcmitype/StillImage" /><dc:title></dc:title></cc:Work></rdf:RDF></metadata><defs
     id="defs14"><clipPath
       id="clipPath26"
       clipPathUnits="userSpaceOnUse"><path
         style="clip-rule:evenodd"
         id="path24"
         d="M 0,1.2207e-4 H 720 V 540.00012 H 0 Z" /></clipPath><clipPath
       id="clipPath48"
       clipPathUnits="userSpaceOnUse"><path
         style="clip-rule:evenodd"
         id="path46"
         d="M 176.52,177.24 H 572.4 V 367.56 H 176.52 Z" /></clipPath><clipPath
       id="clipPath58"
       clipPathUnits="userSpaceOnUse"><path
         style="clip-rule:evenodd"
         id="path56"
         d="M 134.28,126.96 H 585.6 v 286.2 H 134.28 Z" /></clipPath><clipPath
       id="clipPath70"
       clipPathUnits="userSpaceOnUse"><path
         style="clip-rule:evenodd"
         id="path68"
         d="M 134.28,126.96 H 585.6 v 286.2 H 134.28 Z" /></clipPath><clipPath
       id="clipPath82"
       clipPathUnits="userSpaceOnUse"><path
         style="clip-rule:evenodd"
         id="path80"
         d="M 134.28,126.96 H 585.6 v 286.2 H 134.28 Z" /></clipPath><clipPath
       id="clipPath94"
       clipPathUnits="userSpaceOnUse"><path
         style="clip-rule:evenodd"
         id="path92"
         d="M 134.28,126.96 H 585.6 v 286.2 H 134.28 Z" /></clipPath><clipPath
       id="clipPath106"
       clipPathUnits="userSpaceOnUse"><path
         style="clip-rule:evenodd"
         id="path104"
         d="M 134.28,126.96 H 585.6 v 286.2 H 134.28 Z" /></clipPath><clipPath
       id="clipPath118"
       clipPathUnits="userSpaceOnUse"><path
         style="clip-rule:evenodd"
         id="path116"
         d="M 134.28,126.96 H 585.6 v 286.2 H 134.28 Z" /></clipPath><clipPath
       id="clipPath130"
       clipPathUnits="userSpaceOnUse"><path
         style="clip-rule:evenodd"
         id="path128"
         d="M 134.28,126.96 H 585.6 v 286.2 H 134.28 Z" /></clipPath><clipPath
       id="clipPath142"
       clipPathUnits="userSpaceOnUse"><path
         style="clip-rule:evenodd"
         id="path140"
         d="M 134.28,126.96 H 585.6 v 286.2 H 134.28 Z" /></clipPath><clipPath
       id="clipPath154"
       clipPathUnits="userSpaceOnUse"><path
         style="clip-rule:evenodd"
         id="path152"
         d="M 134.28,126.96 H 585.6 v 286.2 H 134.28 Z" /></clipPath><clipPath
       id="clipPath166"
       clipPathUnits="userSpaceOnUse"><path
         style="clip-rule:evenodd"
         id="path164"
         d="M 359.94,413.16 H 585.6 V 126.96 H 134.28 v 286.2 z" /></clipPath><clipPath
       id="clipPath176"
       clipPathUnits="userSpaceOnUse"><path
         style="clip-rule:evenodd"
         id="path174"
         d="M 585.6,413.16 V 126.96 H 134.28 v 286.2 z" /></clipPath><clipPath
       id="clipPath186"
       clipPathUnits="userSpaceOnUse"><path
         style="clip-rule:evenodd"
         id="path184"
         d="M 585.6,413.16 V 126.96 H 134.28 v 286.2 z" /></clipPath><clipPath
       id="clipPath196"
       clipPathUnits="userSpaceOnUse"><path
         style="clip-rule:evenodd"
         id="path194"
         d="M 585.6,413.16 V 126.96 H 134.28 v 286.2 z" /></clipPath><clipPath
       id="clipPath206"
       clipPathUnits="userSpaceOnUse"><path
         style="clip-rule:evenodd"
         id="path204"
         d="M 585.6,413.16 V 126.96 H 134.28 v 286.2 z" /></clipPath><clipPath
       id="clipPath216"
       clipPathUnits="userSpaceOnUse"><path
         style="clip-rule:evenodd"
         id="path214"
         d="M 585.6,413.16 V 126.96 H 134.28 v 286.2 z" /></clipPath><clipPath
       id="clipPath226"
       clipPathUnits="userSpaceOnUse"><path
         style="clip-rule:evenodd"
         id="path224"
         d="M 585.6,413.16 V 126.96 H 134.28 v 286.2 z" /></clipPath><clipPath
       id="clipPath236"
       clipPathUnits="userSpaceOnUse"><path
         style="clip-rule:evenodd"
         id="path234"
         d="M 472.77,413.16 H 585.6 V 126.96 H 134.28 v 286.2 z" /></clipPath><clipPath
       id="clipPath246"
       clipPathUnits="userSpaceOnUse"><path
         style="clip-rule:evenodd"
         id="path244"
         d="M 585.6,413.16 V 126.96 H 134.28 v 286.2 z" /></clipPath><clipPath
       id="clipPath256"
       clipPathUnits="userSpaceOnUse"><path
         style="clip-rule:evenodd"
         id="path254"
         d="M 585.6,413.16 V 126.96 H 134.28 v 286.2 z" /></clipPath><clipPath
       id="clipPath266"
       clipPathUnits="userSpaceOnUse"><path
         style="clip-rule:evenodd"
         id="path264"
         d="M 134.28,413.16 H 585.6 V 126.96 H 134.28 Z" /></clipPath><clipPath
       id="clipPath276"
       clipPathUnits="userSpaceOnUse"><path
         style="clip-rule:evenodd"
         id="path274"
         d="M 510.38,413.16 H 585.6 V 126.96 H 134.28 v 286.2 z" /></clipPath><clipPath
       id="clipPath286"
       clipPathUnits="userSpaceOnUse"><path
         style="clip-rule:evenodd"
         id="path284"
         d="M 585.6,413.16 V 126.96 H 134.28 v 286.2 z" /></clipPath><clipPath
       id="clipPath296"
       clipPathUnits="userSpaceOnUse"><path
         style="clip-rule:evenodd"
         id="path294"
         d="M 585.6,413.16 V 126.96 H 134.28 v 286.2 z" /></clipPath><clipPath
       id="clipPath308"
       clipPathUnits="userSpaceOnUse"><path
         style="clip-rule:evenodd"
         id="path306"
         d="M 134.28,126.96 H 585.6 v 286.2 H 134.28 Z" /></clipPath><clipPath
       id="clipPath320"
       clipPathUnits="userSpaceOnUse"><path
         style="clip-rule:evenodd"
         id="path318"
         d="M 134.28,126.96 H 585.6 v 286.2 H 134.28 Z" /></clipPath><clipPath
       id="clipPath332"
       clipPathUnits="userSpaceOnUse"><path
         style="clip-rule:evenodd"
         id="path330"
         d="M 134.28,126.96 H 585.6 v 286.2 H 134.28 Z" /></clipPath><clipPath
       id="clipPath340"
       clipPathUnits="userSpaceOnUse"><path
         style="clip-rule:evenodd"
         id="path338"
         d="M 134.28,126.96 H 585.6 v 286.2 H 134.28 Z" /></clipPath><clipPath
       id="clipPath352"
       clipPathUnits="userSpaceOnUse"><path
         style="clip-rule:evenodd"
         id="path350"
         d="M 134.28,126.96 H 585.6 v 286.2 H 134.28 Z" /></clipPath><clipPath
       id="clipPath360"
       clipPathUnits="userSpaceOnUse"><path
         style="clip-rule:evenodd"
         id="path358"
         d="M 134.28,126.96 H 585.6 v 286.2 H 134.28 Z" /></clipPath><clipPath
       id="clipPath372"
       clipPathUnits="userSpaceOnUse"><path
         style="clip-rule:evenodd"
         id="path370"
         d="M 134.28,126.96 H 585.6 v 286.2 H 134.28 Z" /></clipPath></defs><g
     transform="matrix(1.3333333,0,0,-1.3333333,0,322)"
     id="g18"><g
       id="g326"><g
         clip-path="url(#clipPath332)"
         id="g328" /></g><g
       id="g346"><g
         clip-path="url(#clipPath352)"
         id="g348" /></g><g
       id="g366"><g
         clip-path="url(#clipPath372)"
         id="g368" /></g><g
       transform="matrix(0.83673476,0,0,0.83673476,-89.73276,-105.45207)"
       id="g481"><path
         d="M 134.4,126.84 H 585.72 V 413.16 H 134.4 Z"
         style="fill:#ffffff;fill-opacity:1;fill-rule:evenodd;stroke:none"
         id="path30" /><path
         d="M 176.64,201.6 H 571.8 M 176.64,225.24 H 571.8 M 176.64,249 H 571.8 M 176.64,272.64 H 571.8 M 176.64,296.4 H 571.8 M 176.64,320.04 H 571.8 M 176.64,343.8 H 571.8 M 176.64,367.44 H 571.8"
         style="fill:none;stroke:#bfbfbf;stroke-width:0.72000003;stroke-linecap:butt;stroke-linejoin:round;stroke-miterlimit:10;stroke-dasharray:none;stroke-opacity:1"
         id="path32" /><path
         d="m 176.64,177.84 v 189.6"
         style="fill:none;stroke:#868686;stroke-width:0.72000003;stroke-linecap:butt;stroke-linejoin:round;stroke-miterlimit:10;stroke-dasharray:none;stroke-opacity:1"
         id="path34" /><path
         d="m 173.88,177.84 h 2.76 m -2.76,23.76 h 2.76 m -2.76,23.64 h 2.76 M 173.88,249 h 2.76 m -2.76,23.64 h 2.76 m -2.76,23.76 h 2.76 m -2.76,23.64 h 2.76 m -2.76,23.76 h 2.76 m -2.76,23.64 h 2.76"
         style="fill:none;stroke:#868686;stroke-width:0.72000003;stroke-linecap:butt;stroke-linejoin:round;stroke-miterlimit:10;stroke-dasharray:none;stroke-opacity:1"
         id="path36" /><path
         d="M 176.64,177.84 H 571.8"
         style="fill:none;stroke:#868686;stroke-width:0.72000003;stroke-linecap:butt;stroke-linejoin:round;stroke-miterlimit:10;stroke-dasharray:none;stroke-opacity:1"
         id="path38" /><path
         d="m 176.64,177.84 v -2.64 m 30.36,2.64 v -2.64 m 30.36,2.64 v -2.64 m 30.36,2.64 v -2.64 m 30.36,2.64 v -2.64 m 30.36,2.64 v -2.64 m 30.36,2.64 v -2.64 m 30.36,2.64 v -2.64 m 30.36,2.64 v -2.64 m 30.36,2.64 v -2.64 m 30.36,2.64 v -2.64 m 30.36,2.64 v -2.64 m 30.36,2.64 v -2.64 m 30.36,2.64 v -2.64"
         style="fill:none;stroke:#868686;stroke-width:0.72000003;stroke-linecap:butt;stroke-linejoin:round;stroke-miterlimit:10;stroke-dasharray:none;stroke-opacity:1"
         id="path40" /><g
         id="g42"><g
           id="g44"
           clip-path="url(#clipPath48)"><path
             d="m 176.88,272.04 3.84,-7.68 3.72,-21.36 3.84,-10.44 3.72,-13.92 3.84,-23.76 3.84,11.04 3.72,-6.24 3.84,-3.12 3.84,-5.16 3.72,61.2 3.84,-7.8 3.72,-3.6 3.84,-3.6 3.84,8.28 3.72,9.36 3.84,-3 3.84,-5.4 3.72,-3 3.84,21.24 3.72,-6.96 3.84,11.52 3.84,1.92 3.72,47.64 3.84,-1.08 3.84,16.08 3.72,-1.32 3.84,0.12 3.72,4.44 3.84,-4.8 3.84,-6.6 3.72,-0.96 3.84,-12.48 3.84,-7.68 3.72,7.08 h 3.84 l 3.72,6.6 3.84,24.84 3.84,1.44 3.72,-19.8 3.84,-3.24 3.84,-15.24 3.72,-4.8 3.84,0.96 3.72,-13.2 3.84,52.56 3.84,-24.48 3.72,15 3.84,3 3.84,-10.92 3.72,-13.08 3.84,4.32 3.72,-18.12 3.84,-30.48 3.84,-8.88 3.72,-27.84 3.24,-6.96 4.44,7.2 3.72,16.8 3.84,-14.28 3.72,-0.96 3.84,2.88 3.84,8.64 3.72,3.48 3.84,-7.08 3.84,-12.72 3.72,-4.56 3.84,18.96 3.72,-4.68 3.84,-5.04 3.84,5.52 3.72,4.56 3.84,-14.88 3.84,15.12 3.72,-12.24 3.84,19.92 3.72,13.68 3.84,-1.68 3.84,-0.6 3.72,-10.92 3.84,14.4 3.72,-19.44 3.84,-27.48 3.84,-1.92 3.72,-8.04 3.84,-7.56 3.84,10.68 3.72,-0.96 3.84,39.84 3.72,9.96 3.84,-11.4 3.84,-12.84 3.72,5.16 3.84,17.64 3.84,17.4 3.72,18.24 7.56,56.88 3.84,-12.12 3.84,2.52 3.72,-15.72 3.84,1.8 3.84,2.52 3.72,-16.8 3.84,-22.92"
             style="fill:none;stroke:#009ddc;stroke-width:2.16000009;stroke-linecap:round;stroke-linejoin:round;stroke-miterlimit:10;stroke-dasharray:none;stroke-opacity:1"
             id="path50" /></g></g><g
         id="g52"><g
           id="g54"
           clip-path="url(#clipPath58)"><text
             transform="matrix(1,0,0,-1,141.31,174.91)"
             style="font-variant:normal;font-weight:normal;font-size:9px;font-family:Arial;-inkscape-font-specification:Arial;writing-mode:lr-tb;fill:#000000;fill-opacity:1;fill-rule:nonzero;stroke:none"
             id="text62"><tspan
               x="0 5.0310001 9.9540005 12.456 17.504999 22.535999"
               y="0"
               id="tspan60">$1,100</tspan></text>
</g></g><g
         id="g64"><g
           id="g66"
           clip-path="url(#clipPath70)"><text
             transform="matrix(1,0,0,-1,141.31,198.62)"
             style="font-variant:normal;font-weight:normal;font-size:9px;font-family:Arial;-inkscape-font-specification:Arial;writing-mode:lr-tb;fill:#000000;fill-opacity:1;fill-rule:nonzero;stroke:none"
             id="text74"><tspan
               x="0 5.0310001 9.9540005 12.456 17.504999 22.535999"
               y="0"
               id="tspan72">$1,200</tspan></text>
</g></g><g
         id="g76"><g
           id="g78"
           clip-path="url(#clipPath82)"><text
             transform="matrix(1,0,0,-1,141.31,222.31)"
             style="font-variant:normal;font-weight:normal;font-size:9px;font-family:Arial;-inkscape-font-specification:Arial;writing-mode:lr-tb;fill:#000000;fill-opacity:1;fill-rule:nonzero;stroke:none"
             id="text86"><tspan
               x="0 5.0310001 9.9540005 12.456 17.504999 22.535999"
               y="0"
               id="tspan84">$1,300</tspan></text>
</g></g><g
         id="g88"><g
           id="g90"
           clip-path="url(#clipPath94)"><text
             transform="matrix(1,0,0,-1,141.31,246.02)"
             style="font-variant:normal;font-weight:normal;font-size:9px;font-family:Arial;-inkscape-font-specification:Arial;writing-mode:lr-tb;fill:#000000;fill-opacity:1;fill-rule:nonzero;stroke:none"
             id="text98"><tspan
               x="0 5.0310001 9.9540005 12.456 17.504999 22.535999"
               y="0"
               id="tspan96">$1,400</tspan></text>
</g></g><g
         id="g100"><g
           id="g102"
           clip-path="url(#clipPath106)"><text
             transform="matrix(1,0,0,-1,141.31,269.71)"
             style="font-variant:normal;font-weight:normal;font-size:9.02400017px;font-family:Arial;-inkscape-font-specification:Arial;writing-mode:lr-tb;fill:#000000;fill-opacity:1;fill-rule:nonzero;stroke:none"
             id="text110"><tspan
               x="0 5.017344 9.9624958 12.471168 17.515585 22.532928"
               y="0"
               id="tspan108">$1,500</tspan></text>
</g></g><g
         id="g112"><g
           id="g114"
           clip-path="url(#clipPath118)"><text
             transform="matrix(1,0,0,-1,141.31,293.42)"
             style="font-variant:normal;font-weight:normal;font-size:9px;font-family:Arial;-inkscape-font-specification:Arial;writing-mode:lr-tb;fill:#000000;fill-opacity:1;fill-rule:nonzero;stroke:none"
             id="text122"><tspan
               x="0 5.0310001 9.9540005 12.456 17.504999 22.535999"
               y="0"
               id="tspan120">$1,600</tspan></text>
</g></g><g
         id="g124"><g
           id="g126"
           clip-path="url(#clipPath130)"><text
             transform="matrix(1,0,0,-1,141.31,317.14)"
             style="font-variant:normal;font-weight:normal;font-size:9px;font-family:Arial;-inkscape-font-specification:Arial;writing-mode:lr-tb;fill:#000000;fill-opacity:1;fill-rule:nonzero;stroke:none"
             id="text134"><tspan
               x="0 5.0310001 9.9540005 12.456 17.504999 22.535999"
               y="0"
               id="tspan132">$1,700</tspan></text>
</g></g><g
         id="g136"><g
           id="g138"
           clip-path="url(#clipPath142)"><text
             transform="matrix(1,0,0,-1,141.31,340.82)"
             style="font-variant:normal;font-weight:normal;font-size:9px;font-family:Arial;-inkscape-font-specification:Arial;writing-mode:lr-tb;fill:#000000;fill-opacity:1;fill-rule:nonzero;stroke:none"
             id="text146"><tspan
               x="0 5.0310001 9.9540005 12.456 17.504999 22.535999"
               y="0"
               id="tspan144">$1,800</tspan></text>
</g></g><g
         id="g148"><g
           id="g150"
           clip-path="url(#clipPath154)"><text
             transform="matrix(1,0,0,-1,141.31,364.54)"
             style="font-variant:normal;font-weight:normal;font-size:9px;font-family:Arial;-inkscape-font-specification:Arial;writing-mode:lr-tb;fill:#000000;fill-opacity:1;fill-rule:nonzero;stroke:none"
             id="text158"><tspan
               x="0 5.0310001 9.9540005 12.456 17.504999 22.535999"
               y="0"
               id="tspan156">$1,900</tspan></text>
</g></g><g
         id="g160"><g
           id="g162"
           clip-path="url(#clipPath166)"><path
             d="m 152.34,141.05 0.54,-0.53 -3.01,-3.02 c -0.14,0.13 -0.25,0.29 -0.32,0.46 -0.13,0.28 -0.21,0.6 -0.24,0.97 -0.03,0.37 -0.02,0.84 0.04,1.42 0.09,0.9 0.1,1.56 0.04,1.97 -0.06,0.41 -0.2,0.72 -0.41,0.94 -0.22,0.22 -0.49,0.33 -0.8,0.32 -0.31,-0.01 -0.59,-0.14 -0.85,-0.39 -0.27,-0.27 -0.4,-0.57 -0.4,-0.89 0,-0.32 0.14,-0.63 0.42,-0.92 l -0.63,-0.51 c -0.39,0.46 -0.57,0.94 -0.54,1.42 0.04,0.48 0.27,0.94 0.7,1.37 0.44,0.44 0.91,0.66 1.4,0.68 0.5,0.01 0.93,-0.16 1.29,-0.52 0.18,-0.18 0.32,-0.4 0.42,-0.65 0.1,-0.25 0.17,-0.56 0.19,-0.93 0.02,-0.37 0,-0.92 -0.06,-1.66 -0.06,-0.62 -0.08,-1.03 -0.08,-1.22 0.01,-0.2 0.03,-0.38 0.07,-0.54 z m 3.57,3.57 0.54,-0.54 -3.02,-3.01 c -0.13,0.13 -0.24,0.28 -0.32,0.45 -0.13,0.28 -0.21,0.61 -0.24,0.98 -0.03,0.36 -0.01,0.84 0.05,1.42 0.08,0.9 0.1,1.55 0.03,1.97 -0.06,0.41 -0.2,0.72 -0.41,0.93 -0.22,0.22 -0.48,0.33 -0.8,0.32 -0.31,0 -0.59,-0.13 -0.84,-0.39 -0.27,-0.27 -0.41,-0.56 -0.41,-0.89 0,-0.32 0.14,-0.63 0.43,-0.91 l -0.64,-0.52 c -0.39,0.47 -0.56,0.94 -0.53,1.42 0.03,0.49 0.26,0.94 0.7,1.38 0.43,0.43 0.9,0.66 1.4,0.67 0.49,0.01 0.92,-0.16 1.28,-0.52 0.18,-0.18 0.32,-0.4 0.43,-0.65 0.1,-0.25 0.16,-0.56 0.18,-0.92 0.02,-0.37 0,-0.93 -0.06,-1.67 -0.05,-0.62 -0.08,-1.02 -0.07,-1.22 0,-0.19 0.02,-0.37 0.06,-0.54 z m -0.35,1.3 -0.57,0.57 1.72,1.71 0.56,-0.56 z m 3.8,1.08 -4.55,4.55 3.07,3.08 0.54,-0.54 -2.47,-2.47 1.41,-1.41 2.14,2.14 0.54,-0.54 -2.14,-2.14 2.07,-2.07 z m 5,7.12 0.65,0.51 c 0.25,-0.43 0.34,-0.86 0.28,-1.3 -0.06,-0.43 -0.28,-0.84 -0.66,-1.22 -0.49,-0.48 -1.02,-0.72 -1.6,-0.7 -0.58,0.01 -1.14,0.29 -1.67,0.82 -0.56,0.56 -0.85,1.13 -0.87,1.73 -0.02,0.59 0.2,1.11 0.66,1.57 0.44,0.44 0.95,0.65 1.53,0.63 0.58,-0.02 1.14,-0.3 1.68,-0.85 0.04,-0.03 0.09,-0.08 0.15,-0.15 l -2.46,-2.46 c 0.38,-0.34 0.76,-0.52 1.14,-0.53 0.38,-0.01 0.7,0.13 0.98,0.4 0.2,0.21 0.33,0.44 0.36,0.69 0.04,0.25 -0.02,0.54 -0.17,0.86 z m -2.74,-0.93 1.84,1.84 c -0.3,0.25 -0.58,0.39 -0.83,0.41 -0.4,0.04 -0.73,-0.08 -1.02,-0.37 -0.26,-0.25 -0.39,-0.55 -0.39,-0.9 0,-0.35 0.13,-0.68 0.4,-0.98 z m 5.62,1.69 -0.51,-0.52 -4.56,4.55 0.56,0.56 1.62,-1.62 c -0.06,0.53 0.1,0.98 0.46,1.35 0.21,0.2 0.44,0.35 0.7,0.45 0.27,0.1 0.53,0.13 0.8,0.1 0.26,-0.03 0.53,-0.11 0.81,-0.26 0.27,-0.14 0.53,-0.33 0.77,-0.57 0.56,-0.56 0.86,-1.14 0.89,-1.73 0.03,-0.59 -0.15,-1.08 -0.54,-1.47 -0.39,-0.39 -0.86,-0.53 -1.41,-0.43 z m -1.68,1.67 c 0.4,-0.4 0.74,-0.63 1.02,-0.7 0.47,-0.11 0.85,-0.02 1.15,0.28 0.24,0.25 0.35,0.57 0.31,0.96 -0.03,0.39 -0.26,0.79 -0.68,1.21 -0.43,0.43 -0.83,0.67 -1.21,0.7 -0.37,0.03 -0.68,-0.07 -0.93,-0.31 -0.24,-0.25 -0.34,-0.56 -0.31,-0.95 0.03,-0.4 0.25,-0.79 0.65,-1.19 z m 3.15,2.53 -0.56,0.56 1.71,1.72 0.57,-0.57 z m 5.66,2.92 -0.56,-0.56 -3.57,3.56 c 0,-0.26 -0.05,-0.56 -0.14,-0.91 -0.09,-0.35 -0.19,-0.64 -0.3,-0.88 l -0.54,0.54 c 0.16,0.46 0.26,0.91 0.28,1.36 0.03,0.44 -0.01,0.81 -0.11,1.1 l 0.36,0.36 z m -0.24,4.7 c -0.32,-0.15 -0.61,-0.2 -0.88,-0.15 -0.27,0.05 -0.52,0.18 -0.73,0.4 -0.34,0.33 -0.5,0.73 -0.48,1.19 0.01,0.46 0.21,0.89 0.61,1.29 0.4,0.4 0.83,0.6 1.31,0.61 0.47,0.02 0.87,-0.14 1.2,-0.48 0.21,-0.21 0.34,-0.45 0.39,-0.71 0.04,-0.27 0,-0.56 -0.14,-0.87 0.37,0.19 0.73,0.25 1.07,0.2 0.35,-0.06 0.67,-0.23 0.95,-0.51 0.39,-0.39 0.58,-0.86 0.57,-1.4 -0.01,-0.54 -0.24,-1.03 -0.69,-1.48 -0.45,-0.45 -0.95,-0.68 -1.49,-0.69 -0.54,-0.01 -1.01,0.18 -1.41,0.58 -0.29,0.3 -0.47,0.62 -0.52,0.97 -0.04,0.35 0.03,0.7 0.24,1.05 z m -1.06,0.84 c 0.21,-0.22 0.46,-0.32 0.73,-0.32 0.28,0 0.53,0.11 0.75,0.33 0.22,0.22 0.32,0.46 0.33,0.74 0,0.27 -0.1,0.51 -0.3,0.7 -0.2,0.21 -0.44,0.31 -0.73,0.31 -0.28,-0.01 -0.52,-0.11 -0.74,-0.32 -0.21,-0.22 -0.32,-0.46 -0.32,-0.74 -0.01,-0.28 0.09,-0.51 0.28,-0.7 z m 1.92,-2.29 c 0.16,-0.16 0.35,-0.27 0.58,-0.35 0.22,-0.07 0.45,-0.07 0.68,-0.01 0.23,0.07 0.43,0.19 0.61,0.36 0.26,0.27 0.4,0.58 0.4,0.92 0,0.35 -0.13,0.66 -0.39,0.92 -0.27,0.27 -0.59,0.4 -0.94,0.4 -0.36,0 -0.67,-0.14 -0.94,-0.41 -0.26,-0.26 -0.39,-0.57 -0.39,-0.91 0,-0.35 0.13,-0.66 0.39,-0.92 z"
             style="fill:#000000;fill-opacity:1;fill-rule:nonzero;stroke:none"
             id="path168" /></g></g><g
         id="g170"><g
           id="g172"
           clip-path="url(#clipPath176)"><path
             d="m 183.47,140.75 -0.56,-0.56 -3.56,3.56 c -0.01,-0.26 -0.06,-0.57 -0.15,-0.91 -0.09,-0.35 -0.19,-0.64 -0.3,-0.88 l -0.54,0.54 c 0.17,0.46 0.27,0.91 0.29,1.35 0.02,0.45 -0.01,0.82 -0.11,1.11 l 0.36,0.36 z m 0.49,2.59 0.49,0.59 c 0.3,-0.21 0.57,-0.31 0.81,-0.29 0.24,0.01 0.46,0.12 0.66,0.32 0.18,0.17 0.29,0.36 0.34,0.57 0.05,0.21 0.05,0.42 0,0.64 -0.05,0.21 -0.16,0.46 -0.32,0.74 -0.17,0.28 -0.37,0.53 -0.6,0.77 -0.03,0.02 -0.07,0.06 -0.12,0.1 0.07,-0.29 0.06,-0.58 -0.02,-0.89 -0.09,-0.3 -0.24,-0.57 -0.47,-0.79 -0.37,-0.38 -0.83,-0.56 -1.36,-0.55 -0.54,0.01 -1.03,0.24 -1.48,0.69 -0.46,0.46 -0.69,0.97 -0.7,1.52 -0.01,0.56 0.19,1.04 0.6,1.45 0.29,0.3 0.64,0.49 1.05,0.57 0.4,0.09 0.82,0.05 1.24,-0.12 0.42,-0.17 0.91,-0.53 1.47,-1.09 0.59,-0.58 0.99,-1.11 1.21,-1.58 0.21,-0.47 0.29,-0.92 0.22,-1.35 -0.07,-0.43 -0.27,-0.81 -0.61,-1.15 -0.35,-0.36 -0.74,-0.55 -1.17,-0.58 -0.42,-0.02 -0.84,0.12 -1.24,0.43 z m 0.28,4.3 c -0.32,0.32 -0.66,0.49 -1.02,0.51 -0.36,0.02 -0.66,-0.09 -0.9,-0.33 -0.25,-0.25 -0.36,-0.57 -0.35,-0.96 0.02,-0.39 0.19,-0.74 0.52,-1.06 0.29,-0.29 0.61,-0.44 0.97,-0.45 0.35,0 0.66,0.12 0.92,0.38 0.26,0.26 0.38,0.56 0.36,0.91 -0.01,0.35 -0.18,0.68 -0.5,1 z m 2.74,-0.65 -0.56,0.56 1.72,1.72 0.56,-0.56 z m 3.28,0.54 -2.81,6.31 0.65,0.64 6.42,-2.69 -0.69,-0.68 -1.91,0.85 -1.9,-1.91 0.88,-1.88 z m -0.56,3.19 1.54,1.54 -1.73,0.79 c -0.53,0.23 -0.95,0.44 -1.27,0.62 0.23,-0.35 0.44,-0.72 0.62,-1.12 z m 6.49,0.22 -4.56,4.56 0.51,0.51 0.43,-0.43 c -0.05,0.29 -0.04,0.55 0.03,0.79 0.06,0.23 0.2,0.46 0.42,0.67 0.28,0.28 0.6,0.46 0.96,0.53 0.36,0.07 0.73,0.03 1.1,-0.12 0.38,-0.16 0.72,-0.39 1.04,-0.71 0.34,-0.34 0.58,-0.7 0.73,-1.09 0.15,-0.39 0.18,-0.78 0.09,-1.15 -0.09,-0.38 -0.26,-0.69 -0.51,-0.95 -0.19,-0.18 -0.39,-0.31 -0.62,-0.38 -0.23,-0.07 -0.45,-0.09 -0.66,-0.07 l 1.6,-1.6 z m -2.39,3.4 c 0.43,-0.42 0.83,-0.65 1.2,-0.68 0.38,-0.04 0.69,0.07 0.93,0.32 0.25,0.24 0.36,0.56 0.32,0.95 -0.03,0.39 -0.27,0.8 -0.71,1.24 -0.42,0.42 -0.82,0.65 -1.2,0.69 -0.38,0.03 -0.69,-0.07 -0.93,-0.31 -0.24,-0.24 -0.34,-0.56 -0.3,-0.96 0.04,-0.41 0.27,-0.83 0.69,-1.25 z m 4.69,1.42 -3.3,3.3 0.5,0.5 0.5,-0.5 c -0.11,0.37 -0.14,0.64 -0.11,0.82 0.04,0.18 0.12,0.34 0.25,0.47 0.19,0.19 0.44,0.32 0.75,0.4 l 0.33,-0.71 c -0.22,-0.06 -0.39,-0.16 -0.53,-0.29 -0.12,-0.13 -0.2,-0.27 -0.22,-0.44 -0.02,-0.17 0.01,-0.35 0.1,-0.52 0.13,-0.26 0.32,-0.51 0.56,-0.74 l 1.72,-1.73 z m 0.54,3.28 -0.56,0.56 1.71,1.72 0.57,-0.56 z m 5.66,2.92 -0.56,-0.56 -3.57,3.56 c 0,-0.26 -0.05,-0.56 -0.14,-0.91 -0.09,-0.35 -0.19,-0.64 -0.3,-0.88 l -0.54,0.54 c 0.16,0.46 0.26,0.91 0.28,1.36 0.03,0.44 -0.01,0.81 -0.11,1.1 l 0.36,0.36 z m -0.16,4.79 c -0.31,-0.15 -0.61,-0.2 -0.88,-0.15 -0.27,0.04 -0.51,0.17 -0.73,0.39 -0.33,0.33 -0.49,0.73 -0.48,1.2 0.01,0.46 0.22,0.89 0.61,1.29 0.4,0.39 0.84,0.6 1.31,0.61 0.47,0.01 0.88,-0.15 1.21,-0.48 0.21,-0.21 0.34,-0.45 0.38,-0.72 0.05,-0.27 0,-0.55 -0.14,-0.87 0.37,0.19 0.73,0.26 1.08,0.2 0.35,-0.05 0.66,-0.22 0.95,-0.51 0.39,-0.39 0.58,-0.85 0.57,-1.39 -0.02,-0.54 -0.25,-1.04 -0.69,-1.49 -0.45,-0.45 -0.95,-0.68 -1.49,-0.68 -0.54,-0.01 -1.01,0.18 -1.41,0.58 -0.3,0.29 -0.47,0.62 -0.52,0.97 -0.05,0.35 0.03,0.7 0.23,1.05 z m -1.06,0.83 c 0.22,-0.21 0.46,-0.32 0.74,-0.32 0.28,0.01 0.52,0.12 0.75,0.34 0.21,0.21 0.32,0.46 0.32,0.73 0,0.28 -0.09,0.51 -0.29,0.71 -0.21,0.2 -0.45,0.3 -0.73,0.3 -0.28,0 -0.53,-0.11 -0.74,-0.32 -0.21,-0.21 -0.32,-0.46 -0.33,-0.73 0,-0.28 0.09,-0.52 0.28,-0.71 z m 1.93,-2.28 c 0.16,-0.16 0.35,-0.28 0.57,-0.35 0.23,-0.07 0.46,-0.08 0.69,-0.01 0.23,0.07 0.43,0.19 0.6,0.36 0.27,0.27 0.4,0.57 0.41,0.92 0,0.35 -0.13,0.65 -0.4,0.92 -0.27,0.27 -0.58,0.4 -0.94,0.4 -0.35,-0.01 -0.66,-0.14 -0.93,-0.41 -0.27,-0.27 -0.4,-0.57 -0.4,-0.92 0.01,-0.35 0.14,-0.65 0.4,-0.91 z"
             style="fill:#000000;fill-opacity:1;fill-rule:nonzero;stroke:none"
             id="path178" /></g></g><g
         id="g180"><g
           id="g182"
           clip-path="url(#clipPath186)"><path
             d="m 213.48,140.39 -0.56,-0.56 -3.57,3.56 c 0,-0.26 -0.05,-0.56 -0.14,-0.91 -0.09,-0.35 -0.19,-0.64 -0.3,-0.88 l -0.54,0.54 c 0.16,0.46 0.26,0.91 0.28,1.36 0.03,0.44 -0.01,0.81 -0.11,1.1 l 0.36,0.36 z m 3.25,3.25 -1.1,1.09 -1.97,-1.98 -0.51,0.52 -0.88,5.03 0.46,0.45 2.95,-2.95 0.62,0.62 0.51,-0.52 -0.62,-0.61 1.09,-1.09 z m -1.61,1.6 -2.05,2.06 0.63,-3.48 z m 1.86,1.39 -0.56,0.56 1.72,1.72 0.56,-0.56 z m 2.18,2.03 0.47,0.62 c 0.36,-0.34 0.66,-0.51 0.91,-0.52 0.24,-0.01 0.47,0.08 0.67,0.29 0.15,0.15 0.25,0.31 0.29,0.49 0.04,0.18 0.02,0.35 -0.06,0.51 -0.07,0.16 -0.24,0.37 -0.5,0.63 l -3.14,3.14 0.6,0.61 3.1,-3.11 c 0.39,-0.38 0.64,-0.72 0.75,-1.02 0.12,-0.3 0.13,-0.61 0.04,-0.92 -0.09,-0.31 -0.27,-0.6 -0.54,-0.87 -0.4,-0.4 -0.82,-0.59 -1.26,-0.57 -0.44,0.02 -0.89,0.26 -1.33,0.72 z m 6.91,4.33 -0.48,0.48 c 0.12,-0.63 -0.05,-1.16 -0.49,-1.6 -0.19,-0.2 -0.41,-0.34 -0.65,-0.44 -0.25,-0.09 -0.47,-0.12 -0.66,-0.09 -0.2,0.03 -0.39,0.11 -0.59,0.24 -0.13,0.09 -0.32,0.25 -0.56,0.49 l -2.04,2.04 0.56,0.56 1.83,-1.83 c 0.29,-0.29 0.5,-0.47 0.62,-0.55 0.19,-0.11 0.38,-0.16 0.57,-0.13 0.2,0.03 0.38,0.13 0.55,0.3 0.17,0.17 0.28,0.37 0.35,0.6 0.06,0.24 0.04,0.46 -0.04,0.67 -0.09,0.21 -0.27,0.45 -0.56,0.73 l -1.76,1.77 0.56,0.56 3.3,-3.3 z m 1.41,1.4 -3.3,3.3 0.5,0.5 0.47,-0.47 c -0.12,0.61 0.05,1.14 0.51,1.6 0.19,0.2 0.41,0.34 0.65,0.44 0.24,0.1 0.46,0.13 0.66,0.09 0.2,-0.03 0.39,-0.11 0.58,-0.24 0.13,-0.08 0.32,-0.25 0.58,-0.51 l 2.03,-2.03 -0.56,-0.56 -2.01,2.01 c -0.23,0.23 -0.42,0.38 -0.58,0.45 -0.15,0.07 -0.32,0.08 -0.5,0.03 -0.18,-0.04 -0.34,-0.13 -0.49,-0.28 -0.24,-0.24 -0.37,-0.52 -0.39,-0.85 -0.02,-0.32 0.18,-0.7 0.6,-1.12 l 1.81,-1.8 z m 1.89,4.63 -0.56,0.56 1.72,1.72 0.56,-0.56 z m 5.66,2.92 -0.56,-0.56 -3.57,3.57 c 0,-0.27 -0.05,-0.57 -0.14,-0.92 -0.09,-0.35 -0.19,-0.64 -0.3,-0.88 l -0.54,0.54 c 0.16,0.46 0.26,0.92 0.28,1.36 0.03,0.44 -0.01,0.81 -0.11,1.11 l 0.36,0.36 z m -0.15,4.79 c -0.32,-0.15 -0.62,-0.2 -0.88,-0.15 -0.27,0.04 -0.52,0.18 -0.74,0.4 -0.33,0.33 -0.49,0.72 -0.48,1.19 0.02,0.46 0.22,0.89 0.62,1.29 0.39,0.4 0.83,0.6 1.3,0.61 0.48,0.01 0.88,-0.15 1.21,-0.48 0.21,-0.21 0.34,-0.45 0.39,-0.72 0.04,-0.26 -0.01,-0.55 -0.15,-0.86 0.37,0.19 0.73,0.25 1.08,0.19 0.35,-0.05 0.67,-0.22 0.95,-0.5 0.39,-0.39 0.58,-0.86 0.57,-1.4 -0.01,-0.54 -0.24,-1.03 -0.69,-1.48 -0.45,-0.45 -0.95,-0.68 -1.49,-0.69 -0.54,-0.01 -1.01,0.18 -1.41,0.58 -0.3,0.3 -0.47,0.62 -0.52,0.97 -0.05,0.35 0.03,0.7 0.24,1.05 z m -1.06,0.84 c 0.21,-0.22 0.46,-0.33 0.73,-0.32 0.28,0 0.53,0.11 0.75,0.33 0.21,0.22 0.32,0.46 0.32,0.74 0.01,0.27 -0.09,0.5 -0.29,0.7 -0.2,0.21 -0.45,0.31 -0.73,0.3 -0.28,0 -0.53,-0.1 -0.74,-0.32 -0.21,-0.21 -0.32,-0.45 -0.32,-0.73 -0.01,-0.28 0.08,-0.51 0.28,-0.7 z m 1.92,-2.29 c 0.16,-0.16 0.35,-0.27 0.58,-0.35 0.22,-0.07 0.45,-0.07 0.68,-0.01 0.23,0.07 0.43,0.19 0.6,0.36 0.27,0.27 0.41,0.58 0.41,0.92 0,0.35 -0.13,0.65 -0.4,0.92 -0.27,0.27 -0.58,0.4 -0.93,0.4 -0.36,-0.01 -0.67,-0.14 -0.94,-0.41 -0.26,-0.26 -0.4,-0.57 -0.39,-0.92 0,-0.34 0.13,-0.65 0.39,-0.91 z"
             style="fill:#000000;fill-opacity:1;fill-rule:nonzero;stroke:none"
             id="path188" /></g></g><g
         id="g190"><g
           id="g192"
           clip-path="url(#clipPath196)"><path
             d="m 238.42,139.47 c -0.54,0.53 -0.92,1.02 -1.14,1.46 -0.21,0.44 -0.3,0.86 -0.26,1.26 0.04,0.39 0.22,0.76 0.55,1.09 0.25,0.24 0.51,0.41 0.8,0.49 0.28,0.09 0.57,0.1 0.88,0.03 0.3,-0.06 0.62,-0.19 0.96,-0.39 0.33,-0.2 0.73,-0.52 1.18,-0.97 0.53,-0.54 0.91,-1.03 1.13,-1.46 0.22,-0.44 0.31,-0.86 0.27,-1.26 -0.04,-0.39 -0.23,-0.76 -0.56,-1.09 -0.44,-0.44 -0.95,-0.63 -1.51,-0.57 -0.68,0.08 -1.45,0.55 -2.3,1.41 z m 0.57,0.57 c 0.75,-0.75 1.33,-1.16 1.76,-1.23 0.42,-0.07 0.76,0.02 1.02,0.28 0.25,0.25 0.35,0.59 0.27,1.02 -0.07,0.42 -0.48,1.01 -1.23,1.75 -0.75,0.75 -1.33,1.16 -1.75,1.23 -0.43,0.07 -0.77,-0.02 -1.03,-0.28 -0.26,-0.26 -0.35,-0.57 -0.29,-0.94 0.09,-0.47 0.5,-1.08 1.25,-1.83 z m 4.27,1.88 0.49,0.59 c 0.29,-0.21 0.56,-0.31 0.81,-0.29 0.24,0.01 0.46,0.12 0.66,0.32 0.17,0.17 0.28,0.36 0.34,0.57 0.05,0.21 0.05,0.42 0,0.64 -0.05,0.21 -0.16,0.46 -0.33,0.74 -0.16,0.28 -0.36,0.53 -0.6,0.76 -0.02,0.03 -0.06,0.06 -0.11,0.11 0.07,-0.29 0.06,-0.58 -0.03,-0.89 -0.08,-0.3 -0.23,-0.57 -0.46,-0.79 -0.38,-0.38 -0.83,-0.56 -1.37,-0.55 -0.53,0.01 -1.02,0.24 -1.47,0.69 -0.46,0.46 -0.7,0.97 -0.71,1.52 0,0.56 0.2,1.04 0.61,1.45 0.29,0.3 0.64,0.49 1.05,0.57 0.4,0.09 0.82,0.05 1.24,-0.12 0.42,-0.17 0.91,-0.53 1.47,-1.09 0.58,-0.58 0.98,-1.11 1.2,-1.58 0.22,-0.47 0.3,-0.92 0.23,-1.35 -0.07,-0.43 -0.28,-0.82 -0.61,-1.15 -0.36,-0.36 -0.75,-0.55 -1.17,-0.58 -0.42,-0.03 -0.84,0.12 -1.24,0.43 z m 0.28,4.3 c -0.32,0.32 -0.66,0.49 -1.02,0.51 -0.36,0.02 -0.66,-0.1 -0.9,-0.34 -0.25,-0.24 -0.37,-0.56 -0.35,-0.95 0.02,-0.39 0.19,-0.74 0.51,-1.07 0.29,-0.29 0.62,-0.43 0.97,-0.44 0.36,-0.01 0.67,0.12 0.92,0.38 0.26,0.25 0.39,0.56 0.37,0.91 -0.01,0.34 -0.18,0.68 -0.5,1 z m 2.74,-0.65 -0.57,0.56 1.72,1.72 0.57,-0.57 z m 3.27,0.54 -2.8,6.3 0.65,0.65 6.42,-2.69 -0.69,-0.68 -1.91,0.84 -1.91,-1.9 0.88,-1.88 z m -0.55,3.18 1.54,1.55 -1.73,0.78 c -0.53,0.24 -0.96,0.45 -1.27,0.63 0.23,-0.35 0.44,-0.73 0.62,-1.12 z m 7.39,3.65 -0.49,0.49 c 0.12,-0.63 -0.04,-1.17 -0.48,-1.61 -0.2,-0.19 -0.42,-0.34 -0.66,-0.43 -0.24,-0.1 -0.46,-0.13 -0.66,-0.1 -0.19,0.03 -0.39,0.12 -0.59,0.25 -0.13,0.08 -0.31,0.25 -0.55,0.48 l -2.05,2.05 0.56,0.56 1.83,-1.83 c 0.29,-0.29 0.5,-0.48 0.63,-0.56 0.18,-0.11 0.37,-0.15 0.57,-0.12 0.2,0.03 0.38,0.13 0.55,0.3 0.16,0.16 0.28,0.36 0.34,0.6 0.06,0.23 0.05,0.45 -0.04,0.66 -0.09,0.21 -0.27,0.45 -0.55,0.74 l -1.77,1.76 0.56,0.56 3.3,-3.3 z m 1.57,1.03 0.62,0.46 c 0.2,-0.14 0.38,-0.2 0.56,-0.18 0.24,0.04 0.48,0.18 0.73,0.42 0.25,0.26 0.4,0.51 0.44,0.75 0.04,0.25 -0.01,0.49 -0.15,0.72 -0.08,0.15 -0.31,0.4 -0.68,0.76 0.05,-0.53 -0.11,-0.98 -0.48,-1.34 -0.45,-0.46 -0.97,-0.64 -1.54,-0.57 -0.58,0.08 -1.1,0.35 -1.55,0.81 -0.32,0.31 -0.55,0.66 -0.7,1.04 -0.16,0.38 -0.2,0.75 -0.13,1.11 0.08,0.37 0.26,0.69 0.55,0.98 0.39,0.39 0.87,0.56 1.44,0.49 l -0.4,0.4 0.51,0.52 2.86,-2.85 c 0.51,-0.52 0.82,-0.93 0.93,-1.25 0.11,-0.32 0.11,-0.66 0.01,-1.01 -0.1,-0.35 -0.32,-0.69 -0.65,-1.02 -0.39,-0.4 -0.8,-0.63 -1.22,-0.69 -0.42,-0.07 -0.8,0.08 -1.15,0.45 z m -1.52,2.44 c 0.43,-0.43 0.84,-0.66 1.21,-0.69 0.37,-0.02 0.68,0.09 0.94,0.35 0.26,0.26 0.37,0.57 0.35,0.95 -0.02,0.37 -0.25,0.76 -0.67,1.19 -0.4,0.4 -0.8,0.62 -1.18,0.64 -0.39,0.03 -0.7,-0.09 -0.96,-0.34 -0.25,-0.25 -0.36,-0.56 -0.33,-0.94 0.03,-0.37 0.24,-0.76 0.64,-1.16 z m 3.33,2.65 -0.56,0.56 1.71,1.72 0.57,-0.56 z m 5.66,2.92 -0.56,-0.56 -3.57,3.57 c 0,-0.27 -0.05,-0.57 -0.14,-0.92 -0.09,-0.35 -0.19,-0.64 -0.3,-0.88 l -0.54,0.54 c 0.16,0.46 0.26,0.92 0.28,1.36 0.03,0.44 -0.01,0.81 -0.11,1.1 l 0.36,0.37 z m -0.16,4.79 c -0.31,-0.15 -0.61,-0.2 -0.88,-0.15 -0.27,0.04 -0.51,0.17 -0.73,0.39 -0.33,0.34 -0.49,0.73 -0.48,1.2 0.01,0.46 0.22,0.89 0.61,1.29 0.4,0.4 0.84,0.6 1.31,0.61 0.47,0.01 0.88,-0.15 1.21,-0.48 0.21,-0.21 0.34,-0.45 0.38,-0.72 0.05,-0.26 0,-0.55 -0.14,-0.86 0.37,0.18 0.73,0.25 1.08,0.19 0.35,-0.05 0.66,-0.22 0.95,-0.5 0.39,-0.39 0.58,-0.86 0.57,-1.4 -0.02,-0.54 -0.25,-1.04 -0.69,-1.49 -0.45,-0.44 -0.95,-0.67 -1.49,-0.68 -0.54,-0.01 -1.01,0.18 -1.41,0.58 -0.3,0.3 -0.47,0.62 -0.52,0.97 -0.05,0.35 0.03,0.7 0.23,1.05 z m -1.06,0.83 c 0.22,-0.21 0.46,-0.32 0.74,-0.32 0.28,0.01 0.52,0.12 0.75,0.34 0.21,0.22 0.32,0.46 0.32,0.73 0,0.28 -0.09,0.51 -0.29,0.71 -0.2,0.2 -0.45,0.31 -0.73,0.3 -0.28,0 -0.53,-0.11 -0.74,-0.32 -0.21,-0.21 -0.32,-0.46 -0.33,-0.73 0,-0.28 0.09,-0.51 0.28,-0.71 z m 1.93,-2.28 c 0.16,-0.16 0.35,-0.28 0.57,-0.35 0.23,-0.07 0.46,-0.08 0.69,-0.01 0.23,0.07 0.43,0.19 0.6,0.36 0.27,0.27 0.4,0.57 0.41,0.92 0,0.35 -0.13,0.65 -0.4,0.92 -0.27,0.27 -0.58,0.4 -0.94,0.4 -0.35,-0.01 -0.66,-0.14 -0.93,-0.41 -0.27,-0.26 -0.4,-0.57 -0.4,-0.92 0.01,-0.34 0.14,-0.65 0.4,-0.91 z"
             style="fill:#000000;fill-opacity:1;fill-rule:nonzero;stroke:none"
             id="path198" /></g></g><g
         id="g200"><g
           id="g202"
           clip-path="url(#clipPath206)"><path
             d="m 270.2,140.89 c -0.54,0.54 -0.92,1.03 -1.13,1.47 -0.22,0.44 -0.31,0.85 -0.27,1.25 0.04,0.4 0.23,0.76 0.56,1.09 0.24,0.25 0.51,0.41 0.79,0.5 0.28,0.08 0.58,0.09 0.88,0.03 0.31,-0.07 0.63,-0.2 0.96,-0.4 0.34,-0.19 0.73,-0.52 1.18,-0.97 0.54,-0.53 0.91,-1.02 1.13,-1.46 0.22,-0.44 0.31,-0.85 0.27,-1.25 -0.04,-0.4 -0.23,-0.77 -0.56,-1.1 -0.44,-0.44 -0.94,-0.63 -1.51,-0.56 -0.68,0.08 -1.44,0.54 -2.3,1.4 z m 0.58,0.57 c 0.74,-0.74 1.33,-1.15 1.75,-1.23 0.42,-0.07 0.76,0.02 1.02,0.28 0.26,0.26 0.35,0.6 0.28,1.02 -0.08,0.43 -0.49,1.01 -1.23,1.76 -0.75,0.75 -1.34,1.16 -1.76,1.23 -0.42,0.07 -0.76,-0.03 -1.02,-0.29 -0.26,-0.25 -0.36,-0.57 -0.29,-0.94 0.08,-0.47 0.5,-1.08 1.25,-1.83 z m 7.02,2.54 -1.09,1.09 -1.97,-1.98 -0.52,0.52 -0.87,5.03 0.46,0.45 2.95,-2.95 0.62,0.62 0.51,-0.51 -0.62,-0.62 1.09,-1.09 z m -1.6,1.6 -2.05,2.06 0.62,-3.48 z m 1.86,1.39 -0.56,0.56 1.72,1.72 0.56,-0.56 z m 1.38,3.08 c -0.76,0.76 -1.15,1.55 -1.17,2.38 -0.02,0.84 0.29,1.58 0.93,2.22 0.42,0.42 0.9,0.7 1.44,0.83 0.54,0.14 1.08,0.12 1.61,-0.06 0.54,-0.19 1.03,-0.51 1.49,-0.96 0.46,-0.46 0.78,-0.97 0.96,-1.52 0.18,-0.55 0.19,-1.09 0.04,-1.62 -0.16,-0.53 -0.43,-0.99 -0.83,-1.39 -0.43,-0.43 -0.91,-0.71 -1.46,-0.84 -0.54,-0.13 -1.08,-0.1 -1.62,0.08 -0.53,0.19 -0.99,0.48 -1.39,0.88 z m 0.63,0.61 c 0.55,-0.55 1.13,-0.83 1.74,-0.85 0.61,-0.02 1.14,0.19 1.58,0.63 0.46,0.46 0.67,0.99 0.64,1.6 -0.02,0.62 -0.33,1.21 -0.91,1.8 -0.38,0.37 -0.76,0.63 -1.16,0.78 -0.41,0.15 -0.8,0.19 -1.2,0.1 -0.39,-0.09 -0.74,-0.29 -1.04,-0.59 -0.42,-0.42 -0.64,-0.94 -0.66,-1.54 -0.01,-0.6 0.32,-1.24 1.01,-1.93 z m 7.65,5.65 0.62,0.48 c 0.32,-0.44 0.46,-0.89 0.43,-1.35 -0.03,-0.46 -0.23,-0.88 -0.59,-1.24 -0.45,-0.45 -0.96,-0.66 -1.53,-0.64 -0.57,0.02 -1.13,0.3 -1.69,0.86 -0.35,0.35 -0.6,0.72 -0.75,1.11 -0.15,0.38 -0.17,0.76 -0.07,1.14 0.11,0.37 0.31,0.7 0.59,0.99 0.36,0.36 0.74,0.56 1.15,0.6 0.41,0.05 0.82,-0.06 1.21,-0.33 l -0.46,-0.63 c -0.27,0.17 -0.53,0.25 -0.77,0.23 -0.25,-0.02 -0.46,-0.12 -0.65,-0.31 -0.28,-0.28 -0.41,-0.61 -0.38,-0.99 0.03,-0.38 0.26,-0.79 0.69,-1.22 0.45,-0.45 0.85,-0.68 1.23,-0.72 0.37,-0.03 0.69,0.09 0.96,0.37 0.22,0.22 0.34,0.47 0.35,0.75 0.01,0.28 -0.1,0.58 -0.34,0.9 z m 2.91,1.5 0.58,-0.41 c -0.13,-0.19 -0.25,-0.35 -0.37,-0.48 -0.21,-0.2 -0.4,-0.32 -0.57,-0.37 -0.18,-0.05 -0.34,-0.04 -0.49,0.02 -0.15,0.05 -0.4,0.25 -0.73,0.59 l -1.9,1.9 -0.41,-0.41 -0.43,0.43 0.41,0.41 -0.82,0.82 0.22,0.89 1.15,-1.15 0.56,0.56 0.44,-0.44 -0.56,-0.56 1.93,-1.93 c 0.16,-0.16 0.27,-0.25 0.33,-0.28 0.07,-0.02 0.14,-0.03 0.21,-0.01 0.07,0.02 0.15,0.07 0.23,0.15 0.06,0.07 0.14,0.15 0.22,0.27 z m -0.52,1.21 -0.56,0.56 1.72,1.72 0.56,-0.56 z m 5.66,2.92 -0.56,-0.56 -3.57,3.57 c 0,-0.26 -0.05,-0.57 -0.14,-0.92 -0.09,-0.34 -0.19,-0.64 -0.3,-0.87 l -0.54,0.54 c 0.16,0.46 0.26,0.91 0.29,1.35 0.02,0.44 -0.02,0.81 -0.12,1.11 l 0.36,0.36 z m -0.15,4.79 c -0.32,-0.15 -0.61,-0.2 -0.88,-0.15 -0.27,0.04 -0.52,0.18 -0.74,0.4 -0.33,0.33 -0.49,0.73 -0.48,1.19 0.02,0.46 0.22,0.89 0.62,1.29 0.39,0.4 0.83,0.6 1.3,0.61 0.48,0.01 0.88,-0.15 1.21,-0.48 0.21,-0.21 0.34,-0.45 0.39,-0.71 0.04,-0.27 -0.01,-0.56 -0.15,-0.87 0.37,0.19 0.73,0.25 1.08,0.2 0.35,-0.06 0.67,-0.23 0.95,-0.51 0.39,-0.39 0.58,-0.86 0.57,-1.4 -0.01,-0.54 -0.24,-1.03 -0.69,-1.48 -0.45,-0.45 -0.95,-0.68 -1.49,-0.69 -0.54,-0.01 -1.01,0.18 -1.41,0.58 -0.3,0.3 -0.47,0.62 -0.52,0.97 -0.05,0.35 0.03,0.7 0.24,1.05 z m -1.06,0.84 c 0.21,-0.22 0.46,-0.32 0.73,-0.32 0.28,0 0.53,0.11 0.75,0.33 0.21,0.22 0.32,0.46 0.32,0.74 0.01,0.27 -0.09,0.5 -0.29,0.7 -0.2,0.21 -0.45,0.31 -0.73,0.31 -0.28,-0.01 -0.53,-0.11 -0.74,-0.32 -0.21,-0.22 -0.32,-0.46 -0.32,-0.74 -0.01,-0.28 0.08,-0.51 0.28,-0.7 z m 1.92,-2.29 c 0.16,-0.16 0.35,-0.27 0.58,-0.35 0.22,-0.07 0.45,-0.07 0.68,-0.01 0.23,0.07 0.43,0.19 0.6,0.36 0.27,0.27 0.41,0.58 0.41,0.92 0,0.35 -0.13,0.65 -0.4,0.92 -0.27,0.27 -0.58,0.4 -0.93,0.4 -0.36,0 -0.67,-0.14 -0.94,-0.41 -0.26,-0.26 -0.4,-0.57 -0.39,-0.91 0,-0.35 0.13,-0.66 0.39,-0.92 z"
             style="fill:#000000;fill-opacity:1;fill-rule:nonzero;stroke:none"
             id="path208" /></g></g><g
         id="g210"><g
           id="g212"
           clip-path="url(#clipPath216)"><path
             d="m 303.79,140.7 0.54,-0.53 -3.01,-3.02 c -0.14,0.13 -0.25,0.29 -0.33,0.46 -0.12,0.28 -0.2,0.6 -0.23,0.97 -0.03,0.37 -0.02,0.84 0.04,1.42 0.09,0.9 0.1,1.56 0.04,1.97 -0.07,0.41 -0.2,0.72 -0.41,0.94 -0.23,0.22 -0.49,0.33 -0.8,0.32 -0.31,-0.01 -0.6,-0.14 -0.85,-0.39 -0.27,-0.27 -0.4,-0.57 -0.4,-0.89 0,-0.32 0.14,-0.63 0.42,-0.92 l -0.63,-0.51 c -0.39,0.46 -0.57,0.94 -0.54,1.42 0.03,0.48 0.27,0.94 0.7,1.37 0.44,0.44 0.9,0.66 1.4,0.68 0.5,0.01 0.92,-0.16 1.28,-0.52 0.19,-0.18 0.33,-0.4 0.43,-0.65 0.1,-0.25 0.16,-0.56 0.18,-0.93 0.03,-0.37 0.01,-0.92 -0.06,-1.66 -0.05,-0.62 -0.07,-1.03 -0.07,-1.22 0.01,-0.2 0.03,-0.38 0.07,-0.54 z m 0.19,1.23 0.49,0.58 c 0.3,-0.2 0.57,-0.3 0.81,-0.28 0.24,0.01 0.47,0.12 0.67,0.32 0.17,0.17 0.28,0.36 0.33,0.57 0.05,0.21 0.05,0.42 0,0.63 -0.04,0.22 -0.15,0.46 -0.32,0.74 -0.17,0.28 -0.37,0.54 -0.6,0.77 -0.02,0.03 -0.06,0.06 -0.11,0.11 0.06,-0.29 0.05,-0.59 -0.03,-0.89 -0.08,-0.31 -0.24,-0.57 -0.46,-0.8 -0.38,-0.37 -0.84,-0.56 -1.37,-0.54 -0.53,0.01 -1.03,0.24 -1.47,0.69 -0.46,0.46 -0.7,0.97 -0.71,1.52 -0.01,0.55 0.19,1.04 0.6,1.45 0.3,0.29 0.65,0.48 1.05,0.57 0.41,0.09 0.82,0.04 1.24,-0.12 0.43,-0.17 0.92,-0.53 1.48,-1.09 0.58,-0.59 0.98,-1.11 1.2,-1.58 0.22,-0.48 0.29,-0.93 0.22,-1.36 -0.07,-0.43 -0.27,-0.81 -0.61,-1.14 -0.35,-0.36 -0.74,-0.55 -1.16,-0.58 -0.43,-0.03 -0.84,0.11 -1.25,0.43 z m 0.28,4.3 c -0.32,0.32 -0.66,0.49 -1.02,0.51 -0.36,0.01 -0.66,-0.1 -0.9,-0.34 -0.25,-0.25 -0.36,-0.57 -0.34,-0.95 0.02,-0.39 0.19,-0.75 0.51,-1.07 0.29,-0.29 0.61,-0.44 0.97,-0.44 0.36,-0.01 0.66,0.12 0.92,0.37 0.26,0.26 0.38,0.57 0.37,0.91 -0.02,0.35 -0.19,0.69 -0.51,1.01 z m 2.74,-0.66 -0.56,0.57 1.72,1.71 0.56,-0.56 z m 3.77,1.04 -4.55,4.56 0.62,0.61 5.97,-1.18 -3.58,3.58 0.58,0.57 4.55,-4.55 -0.62,-0.62 -5.97,1.19 3.58,-3.58 z m 2.75,6.04 c -0.61,0.61 -0.9,1.24 -0.85,1.87 0.04,0.53 0.26,1 0.67,1.41 0.45,0.45 0.97,0.67 1.56,0.66 0.58,-0.01 1.14,-0.27 1.66,-0.8 0.43,-0.42 0.7,-0.82 0.81,-1.19 0.12,-0.37 0.12,-0.75 0.01,-1.12 -0.1,-0.38 -0.3,-0.72 -0.59,-1 -0.46,-0.47 -0.98,-0.69 -1.56,-0.68 -0.59,0.01 -1.16,0.3 -1.71,0.85 z m 0.57,0.58 c 0.42,-0.42 0.83,-0.65 1.23,-0.67 0.39,-0.03 0.73,0.1 1.01,0.38 0.28,0.27 0.4,0.61 0.38,1.01 -0.03,0.39 -0.26,0.81 -0.69,1.24 -0.41,0.41 -0.81,0.62 -1.21,0.65 -0.4,0.02 -0.73,-0.1 -1.01,-0.38 -0.28,-0.28 -0.4,-0.61 -0.38,-1.01 0.03,-0.39 0.25,-0.8 0.67,-1.22 z m 5.68,2.38 -4.55,2.04 0.59,0.59 2.68,-1.27 c 0.29,-0.13 0.58,-0.28 0.88,-0.45 -0.13,0.22 -0.27,0.5 -0.42,0.84 l -1.28,2.74 0.57,0.58 2.05,-4.55 z m 0.72,3.46 -0.56,0.56 1.72,1.72 0.56,-0.57 z m 5.66,2.92 -0.56,-0.56 -3.56,3.56 c -0.01,-0.26 -0.06,-0.57 -0.15,-0.91 -0.09,-0.35 -0.19,-0.64 -0.3,-0.88 l -0.54,0.54 c 0.17,0.46 0.26,0.91 0.29,1.36 0.02,0.44 -0.01,0.81 -0.11,1.1 l 0.36,0.36 z m -0.24,4.7 c -0.31,-0.15 -0.61,-0.2 -0.88,-0.15 -0.26,0.04 -0.51,0.18 -0.73,0.4 -0.33,0.33 -0.49,0.73 -0.48,1.19 0.02,0.46 0.22,0.89 0.62,1.29 0.39,0.4 0.83,0.6 1.3,0.61 0.48,0.01 0.88,-0.15 1.21,-0.48 0.21,-0.21 0.34,-0.45 0.38,-0.71 0.05,-0.27 0,-0.56 -0.14,-0.87 0.37,0.19 0.73,0.25 1.08,0.2 0.35,-0.06 0.67,-0.23 0.95,-0.51 0.39,-0.39 0.58,-0.86 0.57,-1.4 -0.01,-0.54 -0.24,-1.03 -0.69,-1.48 -0.45,-0.45 -0.95,-0.68 -1.49,-0.69 -0.54,-0.01 -1.01,0.18 -1.41,0.58 -0.3,0.3 -0.47,0.62 -0.52,0.97 -0.05,0.35 0.03,0.7 0.23,1.05 z m -1.06,0.84 c 0.22,-0.22 0.47,-0.32 0.74,-0.32 0.28,0 0.53,0.11 0.75,0.33 0.21,0.22 0.32,0.46 0.32,0.74 0.01,0.27 -0.09,0.5 -0.29,0.7 -0.2,0.21 -0.45,0.31 -0.73,0.31 -0.28,-0.01 -0.53,-0.11 -0.74,-0.32 -0.21,-0.22 -0.32,-0.46 -0.32,-0.74 -0.01,-0.28 0.08,-0.51 0.27,-0.7 z m 1.93,-2.29 c 0.16,-0.16 0.35,-0.27 0.57,-0.35 0.23,-0.07 0.46,-0.07 0.69,-0.01 0.23,0.07 0.43,0.19 0.6,0.36 0.27,0.27 0.4,0.58 0.41,0.92 0,0.35 -0.13,0.65 -0.4,0.92 -0.27,0.27 -0.58,0.4 -0.93,0.4 -0.36,0 -0.67,-0.14 -0.94,-0.41 -0.26,-0.26 -0.4,-0.57 -0.39,-0.91 0,-0.35 0.13,-0.66 0.39,-0.92 z"
             style="fill:#000000;fill-opacity:1;fill-rule:nonzero;stroke:none"
             id="path218" /></g></g><g
         id="g220"><g
           id="g222"
           clip-path="url(#clipPath226)"><path
             d="m 335.21,141.76 0.54,-0.54 -3.02,-3.01 c -0.13,0.13 -0.24,0.28 -0.32,0.45 -0.13,0.29 -0.21,0.61 -0.24,0.98 -0.03,0.37 -0.01,0.84 0.05,1.42 0.08,0.9 0.1,1.56 0.03,1.97 -0.06,0.41 -0.2,0.72 -0.41,0.93 -0.22,0.22 -0.49,0.33 -0.8,0.33 -0.31,-0.01 -0.59,-0.14 -0.84,-0.4 -0.27,-0.26 -0.41,-0.56 -0.41,-0.88 0,-0.33 0.14,-0.63 0.43,-0.92 l -0.64,-0.52 c -0.39,0.47 -0.56,0.95 -0.53,1.43 0.03,0.48 0.26,0.94 0.7,1.37 0.43,0.44 0.9,0.66 1.4,0.67 0.49,0.02 0.92,-0.16 1.28,-0.51 0.18,-0.19 0.32,-0.4 0.43,-0.65 0.1,-0.25 0.16,-0.56 0.18,-0.93 0.02,-0.37 0,-0.92 -0.06,-1.67 -0.05,-0.61 -0.08,-1.02 -0.07,-1.22 0,-0.19 0.02,-0.37 0.06,-0.53 z m 2.95,1.88 -1.09,1.09 -1.97,-1.98 -0.52,0.52 -0.87,5.03 0.46,0.45 2.95,-2.95 0.61,0.62 0.52,-0.52 -0.62,-0.61 1.09,-1.09 z m -1.6,1.6 -2.05,2.06 0.62,-3.48 z m 1.86,1.39 -0.56,0.56 1.72,1.72 0.56,-0.56 z m 2.18,2.03 0.47,0.62 c 0.36,-0.34 0.66,-0.51 0.91,-0.52 0.24,-0.01 0.47,0.08 0.67,0.29 0.15,0.15 0.25,0.31 0.29,0.49 0.04,0.18 0.02,0.35 -0.06,0.51 -0.08,0.16 -0.24,0.37 -0.51,0.63 l -3.13,3.14 0.6,0.61 3.1,-3.11 c 0.38,-0.38 0.63,-0.72 0.75,-1.02 0.12,-0.3 0.13,-0.61 0.04,-0.92 -0.09,-0.31 -0.27,-0.6 -0.54,-0.87 -0.4,-0.4 -0.82,-0.59 -1.26,-0.57 -0.44,0.02 -0.89,0.26 -1.33,0.72 z m 6.5,4.73 c -0.03,-0.39 -0.11,-0.71 -0.23,-0.97 -0.12,-0.27 -0.29,-0.51 -0.51,-0.73 -0.36,-0.36 -0.73,-0.55 -1.1,-0.57 -0.37,-0.02 -0.69,0.11 -0.97,0.39 -0.16,0.16 -0.27,0.34 -0.33,0.55 -0.06,0.21 -0.07,0.41 -0.03,0.61 0.03,0.2 0.11,0.4 0.21,0.59 0.08,0.14 0.22,0.33 0.42,0.58 0.4,0.5 0.66,0.9 0.8,1.19 -0.07,0.08 -0.12,0.13 -0.14,0.15 -0.23,0.22 -0.44,0.33 -0.64,0.32 -0.27,-0.02 -0.55,-0.17 -0.83,-0.45 -0.26,-0.26 -0.41,-0.5 -0.44,-0.72 -0.03,-0.22 0.04,-0.47 0.21,-0.77 l -0.62,-0.47 c -0.19,0.29 -0.29,0.56 -0.32,0.81 -0.03,0.26 0.02,0.54 0.16,0.83 0.14,0.29 0.35,0.58 0.63,0.87 0.28,0.28 0.54,0.47 0.79,0.58 0.24,0.11 0.45,0.16 0.64,0.14 0.18,-0.02 0.36,-0.08 0.55,-0.2 0.11,-0.08 0.3,-0.24 0.54,-0.49 l 0.75,-0.75 c 0.52,-0.52 0.86,-0.84 1.02,-0.95 0.16,-0.11 0.34,-0.2 0.54,-0.25 l -0.58,-0.59 c -0.18,0.06 -0.35,0.16 -0.52,0.3 z m -1.3,1.2 c -0.12,-0.29 -0.35,-0.66 -0.7,-1.13 -0.2,-0.26 -0.32,-0.46 -0.38,-0.59 -0.05,-0.14 -0.06,-0.28 -0.04,-0.41 0.03,-0.13 0.09,-0.24 0.19,-0.34 0.15,-0.15 0.33,-0.22 0.54,-0.2 0.22,0.01 0.43,0.12 0.65,0.34 0.21,0.22 0.36,0.46 0.43,0.72 0.08,0.26 0.07,0.51 -0.02,0.76 -0.06,0.18 -0.22,0.4 -0.46,0.64 z m 3.11,-0.2 -3.3,3.3 0.51,0.5 0.47,-0.47 c -0.12,0.61 0.04,1.14 0.5,1.6 0.2,0.2 0.42,0.34 0.66,0.44 0.24,0.1 0.46,0.13 0.65,0.09 0.2,-0.03 0.4,-0.11 0.59,-0.24 0.13,-0.08 0.32,-0.25 0.58,-0.51 l 2.03,-2.03 -0.56,-0.56 -2.01,2.01 c -0.23,0.23 -0.42,0.38 -0.58,0.45 -0.15,0.07 -0.32,0.08 -0.5,0.03 -0.18,-0.04 -0.34,-0.13 -0.49,-0.28 -0.24,-0.24 -0.37,-0.52 -0.39,-0.85 -0.02,-0.32 0.18,-0.7 0.6,-1.12 l 1.8,-1.8 z m 1.9,4.63 -0.56,0.56 1.71,1.72 0.57,-0.56 z m 5.66,2.92 -0.56,-0.56 -3.57,3.57 c 0,-0.27 -0.05,-0.57 -0.14,-0.92 -0.09,-0.35 -0.19,-0.64 -0.3,-0.88 l -0.54,0.54 c 0.16,0.46 0.26,0.92 0.28,1.36 0.03,0.44 -0.01,0.81 -0.11,1.11 l 0.36,0.36 z m 0.48,2.6 0.49,0.58 c 0.3,-0.2 0.57,-0.3 0.81,-0.29 0.24,0.02 0.47,0.13 0.67,0.33 0.17,0.17 0.28,0.36 0.33,0.57 0.05,0.21 0.05,0.42 0,0.63 -0.04,0.22 -0.15,0.46 -0.32,0.74 -0.17,0.28 -0.37,0.54 -0.6,0.77 -0.03,0.03 -0.06,0.06 -0.12,0.11 0.07,-0.29 0.06,-0.59 -0.02,-0.89 -0.08,-0.31 -0.24,-0.57 -0.46,-0.8 -0.38,-0.37 -0.84,-0.56 -1.37,-0.54 -0.54,0.01 -1.03,0.24 -1.47,0.69 -0.47,0.46 -0.7,0.97 -0.71,1.52 -0.01,0.55 0.19,1.04 0.6,1.45 0.3,0.29 0.65,0.48 1.05,0.57 0.41,0.09 0.82,0.04 1.24,-0.12 0.43,-0.17 0.92,-0.54 1.48,-1.09 0.58,-0.59 0.98,-1.11 1.2,-1.58 0.22,-0.48 0.29,-0.93 0.22,-1.36 -0.07,-0.43 -0.27,-0.81 -0.61,-1.14 -0.35,-0.36 -0.74,-0.55 -1.17,-0.58 -0.42,-0.03 -0.83,0.11 -1.24,0.43 z m 0.28,4.3 c -0.32,0.32 -0.66,0.49 -1.02,0.51 -0.36,0.01 -0.66,-0.1 -0.9,-0.34 -0.25,-0.25 -0.36,-0.57 -0.34,-0.95 0.02,-0.39 0.19,-0.75 0.51,-1.07 0.29,-0.29 0.61,-0.44 0.97,-0.44 0.36,-0.01 0.66,0.12 0.92,0.37 0.26,0.26 0.38,0.57 0.37,0.91 -0.02,0.35 -0.19,0.69 -0.51,1.01 z"
             style="fill:#000000;fill-opacity:1;fill-rule:nonzero;stroke:none"
             id="path228" /></g></g><g
         id="g230"><g
           id="g232"
           clip-path="url(#clipPath236)"><path
             d="m 364.87,141.06 0.54,-0.53 -3.01,-3.02 c -0.14,0.14 -0.25,0.29 -0.33,0.46 -0.12,0.28 -0.2,0.6 -0.23,0.97 -0.03,0.37 -0.02,0.84 0.04,1.42 0.09,0.91 0.1,1.56 0.04,1.97 -0.07,0.41 -0.2,0.73 -0.41,0.94 -0.23,0.22 -0.49,0.33 -0.8,0.32 -0.31,-0.01 -0.6,-0.14 -0.85,-0.39 -0.27,-0.27 -0.41,-0.57 -0.41,-0.89 0,-0.32 0.15,-0.63 0.43,-0.92 l -0.63,-0.51 c -0.39,0.47 -0.57,0.94 -0.54,1.42 0.03,0.48 0.27,0.94 0.7,1.37 0.44,0.44 0.9,0.67 1.4,0.68 0.5,0.01 0.92,-0.16 1.28,-0.52 0.19,-0.18 0.33,-0.4 0.43,-0.65 0.1,-0.25 0.16,-0.56 0.18,-0.93 0.03,-0.37 0,-0.92 -0.06,-1.66 -0.05,-0.62 -0.08,-1.03 -0.07,-1.22 0,-0.2 0.03,-0.38 0.07,-0.54 z m 3.27,2.2 -0.56,-0.56 -3.56,3.56 c -0.01,-0.26 -0.06,-0.57 -0.15,-0.91 -0.09,-0.35 -0.19,-0.64 -0.3,-0.88 l -0.54,0.54 c 0.17,0.46 0.26,0.91 0.29,1.35 0.02,0.45 -0.02,0.82 -0.12,1.11 l 0.37,0.36 z m -0.06,2.67 -0.56,0.57 1.72,1.71 0.56,-0.56 z m 3.76,1.03 -4.55,4.55 0.9,0.91 4.31,-2.15 c 0.4,-0.2 0.69,-0.35 0.89,-0.45 -0.12,0.21 -0.28,0.54 -0.49,0.97 l -2.08,4.26 0.81,0.81 4.56,-4.55 -0.58,-0.59 -3.82,3.82 2.49,-5.14 -0.54,-0.54 -5.2,2.56 3.88,-3.88 z m 7.04,7.85 c -0.03,-0.38 -0.11,-0.71 -0.22,-0.97 -0.12,-0.26 -0.29,-0.51 -0.51,-0.72 -0.37,-0.37 -0.73,-0.56 -1.1,-0.57 -0.38,-0.02 -0.7,0.11 -0.98,0.38 -0.16,0.16 -0.27,0.35 -0.33,0.55 -0.06,0.21 -0.07,0.42 -0.03,0.62 0.04,0.2 0.11,0.39 0.22,0.58 0.08,0.14 0.22,0.33 0.41,0.58 0.4,0.51 0.67,0.9 0.81,1.19 -0.08,0.08 -0.13,0.13 -0.15,0.15 -0.22,0.23 -0.44,0.34 -0.64,0.32 -0.27,-0.01 -0.54,-0.16 -0.82,-0.44 -0.27,-0.27 -0.41,-0.51 -0.45,-0.72 -0.03,-0.22 0.04,-0.48 0.21,-0.77 l -0.62,-0.47 c -0.18,0.28 -0.29,0.55 -0.32,0.81 -0.03,0.26 0.02,0.53 0.16,0.83 0.14,0.29 0.35,0.58 0.63,0.86 0.29,0.28 0.55,0.48 0.79,0.59 0.24,0.11 0.46,0.15 0.64,0.14 0.18,-0.02 0.37,-0.09 0.55,-0.21 0.12,-0.08 0.3,-0.24 0.55,-0.49 l 0.74,-0.74 c 0.52,-0.52 0.86,-0.84 1.03,-0.95 0.16,-0.12 0.34,-0.2 0.53,-0.26 l -0.58,-0.58 c -0.17,0.05 -0.35,0.15 -0.52,0.29 z m -1.3,1.2 c -0.12,-0.28 -0.35,-0.66 -0.7,-1.12 -0.19,-0.26 -0.32,-0.46 -0.37,-0.6 -0.06,-0.14 -0.07,-0.27 -0.04,-0.4 0.03,-0.13 0.09,-0.25 0.19,-0.35 0.14,-0.15 0.33,-0.21 0.54,-0.2 0.21,0.01 0.42,0.13 0.64,0.35 0.22,0.21 0.36,0.45 0.44,0.71 0.07,0.27 0.06,0.52 -0.02,0.76 -0.07,0.19 -0.22,0.4 -0.47,0.65 z m 3.11,-0.2 -3.3,3.3 0.5,0.5 0.51,-0.5 c -0.11,0.36 -0.15,0.64 -0.11,0.82 0.03,0.18 0.11,0.34 0.25,0.47 0.18,0.19 0.44,0.32 0.75,0.4 l 0.33,-0.72 c -0.22,-0.05 -0.4,-0.15 -0.53,-0.28 -0.13,-0.13 -0.2,-0.27 -0.22,-0.44 -0.03,-0.17 0,-0.35 0.09,-0.52 0.14,-0.26 0.33,-0.51 0.56,-0.74 l 1.73,-1.73 z m 0.54,3.28 -0.56,0.56 1.72,1.72 0.56,-0.57 z m 5.58,2.83 -0.56,-0.55 -3.57,3.56 c 0,-0.26 -0.05,-0.57 -0.14,-0.92 -0.09,-0.34 -0.19,-0.64 -0.3,-0.87 l -0.54,0.54 c 0.16,0.46 0.26,0.91 0.28,1.35 0.03,0.45 -0.01,0.81 -0.11,1.11 l 0.36,0.36 z m 0.48,2.6 0.49,0.59 c 0.3,-0.21 0.57,-0.31 0.81,-0.29 0.25,0.01 0.47,0.12 0.67,0.32 0.17,0.17 0.28,0.36 0.33,0.57 0.05,0.21 0.05,0.42 0.01,0.63 -0.05,0.22 -0.16,0.47 -0.33,0.75 -0.17,0.28 -0.37,0.53 -0.6,0.76 -0.02,0.03 -0.06,0.06 -0.11,0.11 0.06,-0.29 0.05,-0.59 -0.03,-0.89 -0.08,-0.3 -0.24,-0.57 -0.46,-0.8 -0.38,-0.37 -0.83,-0.55 -1.37,-0.54 -0.53,0.01 -1.02,0.24 -1.47,0.69 -0.46,0.46 -0.7,0.97 -0.71,1.52 -0.01,0.56 0.19,1.04 0.6,1.45 0.3,0.29 0.65,0.49 1.05,0.57 0.41,0.09 0.82,0.05 1.25,-0.12 0.42,-0.17 0.91,-0.53 1.47,-1.09 0.58,-0.58 0.98,-1.11 1.2,-1.58 0.22,-0.47 0.29,-0.92 0.22,-1.35 -0.07,-0.43 -0.27,-0.82 -0.6,-1.15 -0.36,-0.36 -0.75,-0.55 -1.17,-0.58 -0.43,-0.03 -0.84,0.12 -1.25,0.43 z m 0.28,4.3 c -0.32,0.32 -0.66,0.49 -1.02,0.51 -0.36,0.02 -0.66,-0.1 -0.9,-0.34 -0.24,-0.25 -0.36,-0.56 -0.34,-0.95 0.02,-0.39 0.19,-0.74 0.51,-1.07 0.29,-0.29 0.61,-0.43 0.97,-0.44 0.36,-0.01 0.66,0.12 0.92,0.38 0.26,0.25 0.38,0.56 0.37,0.91 -0.02,0.34 -0.18,0.68 -0.51,1 z"
             style="fill:#000000;fill-opacity:1;fill-rule:nonzero;stroke:none"
             id="path238" /></g></g><g
         id="g240"><g
           id="g242"
           clip-path="url(#clipPath246)"><path
             d="m 393.87,138.63 -0.56,-0.56 -3.56,3.56 c -0.01,-0.26 -0.06,-0.56 -0.15,-0.91 -0.09,-0.35 -0.19,-0.64 -0.3,-0.88 l -0.54,0.54 c 0.17,0.46 0.26,0.91 0.29,1.36 0.02,0.44 -0.01,0.81 -0.11,1.1 l 0.36,0.36 z m 0.92,7.8 -0.51,-0.6 c -0.27,0.17 -0.5,0.26 -0.69,0.27 -0.31,0 -0.58,-0.1 -0.8,-0.32 -0.18,-0.18 -0.29,-0.39 -0.32,-0.62 -0.05,-0.31 0,-0.63 0.15,-0.98 0.14,-0.35 0.44,-0.75 0.89,-1.21 -0.07,0.34 -0.06,0.65 0.04,0.95 0.09,0.29 0.25,0.55 0.46,0.76 0.37,0.37 0.83,0.55 1.36,0.54 0.54,-0.01 1.03,-0.24 1.46,-0.67 0.29,-0.29 0.49,-0.62 0.61,-0.98 0.13,-0.37 0.14,-0.73 0.06,-1.08 -0.08,-0.34 -0.26,-0.65 -0.54,-0.93 -0.46,-0.46 -1.02,-0.67 -1.65,-0.62 -0.64,0.05 -1.35,0.47 -2.14,1.25 -0.88,0.88 -1.36,1.69 -1.43,2.41 -0.07,0.63 0.14,1.19 0.62,1.67 0.36,0.36 0.76,0.55 1.19,0.58 0.43,0.03 0.84,-0.11 1.24,-0.42 z m -0.32,-4.25 c 0.19,-0.19 0.42,-0.34 0.68,-0.43 0.25,-0.09 0.5,-0.11 0.74,-0.06 0.24,0.06 0.44,0.16 0.6,0.33 0.24,0.23 0.35,0.53 0.33,0.89 -0.02,0.36 -0.2,0.7 -0.53,1.03 -0.31,0.32 -0.64,0.48 -0.99,0.49 -0.35,0.02 -0.65,-0.1 -0.91,-0.36 -0.25,-0.25 -0.37,-0.56 -0.37,-0.91 0.01,-0.36 0.16,-0.69 0.45,-0.98 z m 2.91,2.69 -0.56,0.56 1.71,1.72 0.57,-0.56 z m 3.76,1.02 -4.56,4.56 0.91,0.91 4.3,-2.15 c 0.4,-0.2 0.7,-0.35 0.89,-0.46 -0.11,0.22 -0.27,0.54 -0.48,0.98 l -2.08,4.26 0.81,0.81 4.55,-4.56 -0.58,-0.58 -3.81,3.81 2.49,-5.13 -0.54,-0.55 -5.2,2.56 3.88,-3.87 z m 7.04,7.86 c -0.04,-0.39 -0.11,-0.71 -0.23,-0.97 -0.12,-0.27 -0.29,-0.51 -0.51,-0.73 -0.36,-0.36 -0.73,-0.55 -1.1,-0.57 -0.37,-0.02 -0.69,0.11 -0.97,0.39 -0.16,0.16 -0.27,0.34 -0.33,0.55 -0.06,0.21 -0.07,0.41 -0.04,0.61 0.04,0.2 0.12,0.4 0.22,0.59 0.08,0.14 0.22,0.33 0.42,0.58 0.39,0.5 0.66,0.9 0.8,1.19 -0.07,0.08 -0.12,0.13 -0.14,0.15 -0.23,0.23 -0.44,0.33 -0.64,0.32 -0.27,-0.02 -0.55,-0.17 -0.83,-0.45 -0.26,-0.26 -0.41,-0.5 -0.44,-0.72 -0.04,-0.22 0.04,-0.47 0.21,-0.77 l -0.62,-0.47 c -0.19,0.29 -0.29,0.56 -0.32,0.82 -0.03,0.25 0.02,0.53 0.16,0.82 0.14,0.29 0.35,0.58 0.63,0.87 0.28,0.28 0.54,0.47 0.79,0.58 0.24,0.11 0.45,0.16 0.63,0.14 0.19,-0.01 0.37,-0.08 0.56,-0.2 0.11,-0.08 0.29,-0.24 0.54,-0.49 l 0.75,-0.75 c 0.52,-0.52 0.86,-0.83 1.02,-0.95 0.16,-0.11 0.34,-0.2 0.54,-0.25 l -0.59,-0.59 c -0.17,0.06 -0.34,0.16 -0.51,0.3 z m -1.3,1.2 c -0.12,-0.29 -0.35,-0.66 -0.7,-1.12 -0.2,-0.27 -0.32,-0.47 -0.38,-0.6 -0.05,-0.14 -0.07,-0.28 -0.04,-0.41 0.03,-0.13 0.09,-0.24 0.19,-0.34 0.15,-0.15 0.33,-0.22 0.54,-0.2 0.22,0.01 0.43,0.13 0.65,0.34 0.21,0.22 0.36,0.46 0.43,0.72 0.07,0.26 0.07,0.51 -0.02,0.76 -0.06,0.18 -0.22,0.4 -0.47,0.65 z m 4.36,-1.49 -0.59,0.46 c 0.16,0.09 0.28,0.18 0.37,0.27 0.13,0.12 0.2,0.24 0.24,0.36 0.03,0.12 0.03,0.23 0.01,0.36 -0.02,0.09 -0.11,0.28 -0.25,0.58 -0.02,0.05 -0.05,0.11 -0.09,0.19 l -4.55,2.05 0.6,0.61 2.6,-1.23 c 0.33,-0.15 0.66,-0.33 1,-0.52 -0.19,0.32 -0.37,0.65 -0.52,0.98 l -1.22,2.63 0.56,0.56 2.1,-4.61 c 0.23,-0.5 0.37,-0.86 0.44,-1.07 0.08,-0.28 0.1,-0.53 0.06,-0.74 -0.04,-0.22 -0.15,-0.41 -0.33,-0.59 -0.11,-0.11 -0.25,-0.21 -0.43,-0.29 z m 0.31,5.58 -0.56,0.56 1.71,1.72 0.57,-0.56 z m 5.66,2.92 -0.56,-0.56 -3.57,3.57 c 0,-0.26 -0.05,-0.57 -0.14,-0.92 -0.09,-0.34 -0.19,-0.64 -0.3,-0.87 l -0.54,0.54 c 0.16,0.46 0.26,0.91 0.28,1.35 0.03,0.44 -0.01,0.81 -0.11,1.11 l 0.36,0.36 z m 0.48,2.6 0.49,0.58 c 0.3,-0.2 0.57,-0.3 0.81,-0.28 0.24,0.01 0.47,0.12 0.67,0.32 0.17,0.17 0.28,0.36 0.33,0.57 0.05,0.21 0.05,0.42 0,0.63 -0.04,0.22 -0.15,0.46 -0.32,0.74 -0.17,0.28 -0.37,0.54 -0.6,0.77 -0.03,0.03 -0.06,0.06 -0.12,0.11 0.07,-0.29 0.06,-0.59 -0.02,-0.89 -0.08,-0.31 -0.24,-0.57 -0.46,-0.8 -0.38,-0.37 -0.84,-0.56 -1.37,-0.54 -0.54,0.01 -1.03,0.24 -1.47,0.69 -0.47,0.46 -0.7,0.97 -0.71,1.52 -0.01,0.55 0.19,1.04 0.6,1.45 0.3,0.29 0.65,0.48 1.05,0.57 0.41,0.09 0.82,0.05 1.24,-0.12 0.43,-0.17 0.92,-0.53 1.48,-1.09 0.58,-0.59 0.98,-1.11 1.2,-1.58 0.22,-0.47 0.29,-0.93 0.22,-1.36 -0.07,-0.42 -0.27,-0.81 -0.61,-1.14 -0.35,-0.36 -0.74,-0.55 -1.17,-0.58 -0.42,-0.03 -0.83,0.11 -1.24,0.43 z m 0.28,4.3 c -0.32,0.32 -0.66,0.49 -1.02,0.51 -0.36,0.01 -0.66,-0.1 -0.9,-0.34 -0.25,-0.25 -0.36,-0.56 -0.34,-0.95 0.02,-0.39 0.19,-0.74 0.51,-1.07 0.29,-0.29 0.61,-0.44 0.97,-0.44 0.36,-0.01 0.66,0.12 0.92,0.37 0.26,0.26 0.38,0.57 0.37,0.91 -0.02,0.35 -0.19,0.69 -0.51,1.01 z"
             style="fill:#000000;fill-opacity:1;fill-rule:nonzero;stroke:none"
             id="path248" /></g></g><g
         id="g250"><g
           id="g252"
           clip-path="url(#clipPath256)"><path
             d="m 428.12,142.51 -0.56,-0.55 -3.57,3.56 c 0,-0.26 -0.05,-0.57 -0.14,-0.92 -0.09,-0.34 -0.19,-0.64 -0.3,-0.87 l -0.54,0.54 c 0.16,0.46 0.26,0.91 0.28,1.35 0.03,0.45 -0.01,0.81 -0.11,1.11 l 0.36,0.36 z m 3.56,3.57 -0.56,-0.56 -3.56,3.56 c -0.01,-0.26 -0.06,-0.57 -0.15,-0.91 -0.09,-0.35 -0.19,-0.64 -0.3,-0.88 l -0.54,0.54 c 0.17,0.46 0.26,0.91 0.29,1.36 0.02,0.44 -0.02,0.81 -0.11,1.1 l 0.36,0.36 z m -0.06,2.68 -0.56,0.56 1.72,1.72 0.56,-0.57 z m 2.18,2.02 0.47,0.62 c 0.36,-0.33 0.66,-0.5 0.91,-0.52 0.24,-0.01 0.47,0.09 0.67,0.29 0.15,0.15 0.25,0.32 0.29,0.5 0.04,0.18 0.02,0.35 -0.05,0.51 -0.08,0.16 -0.25,0.37 -0.51,0.63 l -3.14,3.14 0.6,0.6 3.11,-3.1 c 0.38,-0.38 0.63,-0.73 0.74,-1.03 0.12,-0.3 0.13,-0.6 0.04,-0.91 -0.09,-0.31 -0.27,-0.6 -0.54,-0.87 -0.4,-0.4 -0.82,-0.59 -1.26,-0.58 -0.44,0.02 -0.88,0.26 -1.33,0.72 z m 6.92,4.33 -0.49,0.49 c 0.12,-0.63 -0.05,-1.17 -0.49,-1.61 -0.19,-0.19 -0.41,-0.34 -0.65,-0.43 -0.25,-0.1 -0.47,-0.13 -0.66,-0.1 -0.2,0.04 -0.39,0.12 -0.59,0.25 -0.13,0.08 -0.32,0.25 -0.55,0.48 l -2.05,2.05 0.56,0.56 1.83,-1.83 c 0.29,-0.29 0.5,-0.48 0.62,-0.56 0.19,-0.11 0.38,-0.15 0.57,-0.12 0.2,0.03 0.39,0.13 0.55,0.3 0.17,0.16 0.29,0.36 0.35,0.6 0.06,0.23 0.04,0.45 -0.04,0.66 -0.09,0.21 -0.27,0.46 -0.56,0.74 l -1.76,1.77 0.56,0.55 3.3,-3.3 z m 1.38,1.39 -4.55,4.56 0.56,0.56 4.55,-4.56 z m -0.21,2.52 -0.56,0.57 1.72,1.71 0.56,-0.56 z m 5.66,2.93 -0.56,-0.56 -3.57,3.56 c 0,-0.26 -0.05,-0.57 -0.14,-0.91 -0.09,-0.35 -0.19,-0.64 -0.3,-0.88 l -0.54,0.54 c 0.16,0.46 0.26,0.91 0.28,1.35 0.03,0.45 -0.01,0.82 -0.11,1.11 l 0.36,0.36 z m 0.48,2.59 0.49,0.59 c 0.3,-0.21 0.57,-0.31 0.81,-0.29 0.25,0.01 0.47,0.12 0.67,0.32 0.17,0.17 0.28,0.36 0.33,0.57 0.05,0.21 0.05,0.42 0.01,0.64 -0.05,0.21 -0.16,0.46 -0.33,0.74 -0.17,0.28 -0.37,0.53 -0.6,0.76 -0.02,0.03 -0.06,0.07 -0.11,0.11 0.06,-0.29 0.05,-0.58 -0.03,-0.89 -0.08,-0.3 -0.24,-0.57 -0.46,-0.79 -0.38,-0.38 -0.83,-0.56 -1.37,-0.55 -0.53,0.01 -1.02,0.24 -1.47,0.69 -0.46,0.46 -0.7,0.97 -0.71,1.52 -0.01,0.56 0.19,1.04 0.6,1.45 0.3,0.3 0.65,0.49 1.05,0.57 0.41,0.09 0.82,0.05 1.25,-0.12 0.42,-0.17 0.91,-0.53 1.47,-1.09 0.58,-0.58 0.98,-1.11 1.2,-1.58 0.22,-0.47 0.29,-0.92 0.22,-1.35 -0.07,-0.43 -0.27,-0.82 -0.6,-1.15 -0.36,-0.36 -0.75,-0.55 -1.17,-0.58 -0.43,-0.03 -0.84,0.12 -1.25,0.43 z m 0.28,4.3 c -0.32,0.32 -0.66,0.49 -1.02,0.51 -0.36,0.02 -0.66,-0.1 -0.9,-0.34 -0.24,-0.24 -0.36,-0.56 -0.34,-0.95 0.02,-0.39 0.19,-0.74 0.51,-1.07 0.29,-0.29 0.61,-0.43 0.97,-0.44 0.36,-0.01 0.66,0.12 0.92,0.38 0.26,0.26 0.38,0.56 0.37,0.91 -0.02,0.34 -0.18,0.68 -0.51,1 z"
             style="fill:#000000;fill-opacity:1;fill-rule:nonzero;stroke:none"
             id="path258" /></g></g><g
         id="g260"><g
           id="g262"
           clip-path="url(#clipPath266)"><path
             d="m 450.93,139.47 c -0.54,0.53 -0.91,1.02 -1.13,1.46 -0.22,0.44 -0.31,0.86 -0.27,1.26 0.04,0.39 0.23,0.76 0.56,1.09 0.25,0.24 0.51,0.41 0.79,0.49 0.28,0.09 0.58,0.1 0.88,0.03 0.31,-0.06 0.63,-0.19 0.96,-0.39 0.34,-0.2 0.73,-0.52 1.18,-0.97 0.54,-0.54 0.91,-1.03 1.13,-1.46 0.22,-0.44 0.31,-0.86 0.27,-1.26 -0.04,-0.39 -0.22,-0.76 -0.56,-1.09 -0.44,-0.44 -0.94,-0.63 -1.5,-0.57 -0.68,0.08 -1.45,0.55 -2.31,1.41 z m 0.58,0.57 c 0.75,-0.75 1.33,-1.16 1.75,-1.23 0.43,-0.07 0.77,0.02 1.02,0.28 0.26,0.25 0.35,0.59 0.28,1.02 -0.08,0.42 -0.49,1.01 -1.23,1.75 -0.75,0.75 -1.34,1.16 -1.76,1.23 -0.42,0.07 -0.76,-0.02 -1.02,-0.28 -0.26,-0.26 -0.36,-0.57 -0.29,-0.94 0.08,-0.47 0.5,-1.08 1.25,-1.83 z m 4.04,1.94 0.54,0.63 c 0.33,-0.24 0.64,-0.35 0.95,-0.34 0.3,0.02 0.56,0.13 0.78,0.36 0.27,0.27 0.4,0.6 0.38,0.99 -0.01,0.39 -0.19,0.75 -0.52,1.08 -0.32,0.32 -0.66,0.48 -1.03,0.49 -0.36,0.01 -0.69,-0.14 -0.98,-0.43 -0.18,-0.18 -0.3,-0.38 -0.36,-0.61 -0.07,-0.22 -0.07,-0.44 -0.03,-0.66 l -0.59,-0.45 -1.9,2.78 2.27,2.26 0.53,-0.53 -1.82,-1.82 0.98,-1.47 c 0.08,0.46 0.28,0.85 0.58,1.15 0.39,0.39 0.87,0.59 1.42,0.59 0.55,0 1.04,-0.22 1.47,-0.65 0.41,-0.42 0.65,-0.89 0.71,-1.43 0.07,-0.66 -0.14,-1.25 -0.65,-1.75 -0.41,-0.42 -0.86,-0.64 -1.36,-0.67 -0.49,-0.03 -0.95,0.13 -1.37,0.48 z m 3.24,3.59 -0.56,0.56 1.72,1.72 0.56,-0.57 z m 2.11,2.3 0.52,0.62 c 0.26,-0.2 0.5,-0.33 0.75,-0.38 0.24,-0.04 0.51,-0.01 0.81,0.11 0.3,0.11 0.58,0.3 0.84,0.56 0.23,0.23 0.4,0.47 0.5,0.71 0.11,0.25 0.15,0.47 0.11,0.68 -0.03,0.2 -0.12,0.38 -0.26,0.52 -0.14,0.14 -0.31,0.22 -0.5,0.25 -0.18,0.02 -0.41,-0.03 -0.67,-0.14 -0.17,-0.08 -0.52,-0.28 -1.04,-0.59 -0.52,-0.32 -0.9,-0.52 -1.16,-0.6 -0.33,-0.1 -0.64,-0.12 -0.91,-0.06 -0.28,0.06 -0.52,0.2 -0.73,0.41 -0.23,0.23 -0.38,0.51 -0.45,0.84 -0.07,0.33 -0.03,0.67 0.12,1.02 0.15,0.36 0.37,0.69 0.68,0.99 0.34,0.34 0.69,0.59 1.06,0.74 0.36,0.14 0.72,0.18 1.07,0.11 0.35,-0.07 0.67,-0.24 0.94,-0.49 l -0.53,-0.63 c -0.32,0.26 -0.64,0.37 -0.97,0.34 -0.33,-0.03 -0.66,-0.22 -1.01,-0.57 -0.37,-0.37 -0.57,-0.7 -0.6,-1 -0.03,-0.3 0.04,-0.54 0.23,-0.73 0.17,-0.17 0.36,-0.24 0.58,-0.23 0.22,0.01 0.64,0.21 1.24,0.58 0.6,0.38 1.03,0.62 1.3,0.72 0.38,0.15 0.73,0.19 1.05,0.13 0.31,-0.07 0.59,-0.22 0.84,-0.46 0.24,-0.25 0.4,-0.54 0.47,-0.9 0.08,-0.35 0.05,-0.72 -0.1,-1.09 -0.14,-0.38 -0.37,-0.74 -0.69,-1.06 -0.42,-0.41 -0.82,-0.7 -1.22,-0.86 -0.4,-0.16 -0.8,-0.19 -1.2,-0.11 -0.4,0.08 -0.76,0.27 -1.07,0.57 z m 7.04,6.23 0.65,0.51 c 0.24,-0.43 0.34,-0.86 0.28,-1.29 -0.06,-0.44 -0.28,-0.84 -0.67,-1.23 -0.48,-0.48 -1.01,-0.71 -1.59,-0.7 -0.58,0.01 -1.14,0.29 -1.68,0.83 -0.55,0.55 -0.84,1.13 -0.86,1.72 -0.02,0.59 0.2,1.11 0.65,1.57 0.44,0.44 0.95,0.65 1.53,0.63 0.58,-0.02 1.15,-0.3 1.69,-0.85 0.03,-0.03 0.08,-0.08 0.15,-0.15 l -2.46,-2.46 c 0.38,-0.34 0.76,-0.52 1.14,-0.53 0.37,0 0.7,0.13 0.98,0.4 0.2,0.21 0.32,0.44 0.36,0.69 0.04,0.25 -0.02,0.54 -0.17,0.86 z m -2.74,-0.93 1.84,1.84 c -0.3,0.26 -0.58,0.39 -0.84,0.42 -0.39,0.03 -0.73,-0.09 -1.01,-0.37 -0.26,-0.26 -0.39,-0.56 -0.39,-0.91 -0.01,-0.35 0.13,-0.67 0.4,-0.98 z m 6.37,-0.09 -4.56,4.56 0.5,0.51 0.43,-0.42 c -0.04,0.28 -0.03,0.54 0.03,0.78 0.07,0.23 0.21,0.46 0.43,0.68 0.28,0.28 0.6,0.45 0.96,0.52 0.36,0.07 0.73,0.03 1.1,-0.12 0.38,-0.16 0.72,-0.39 1.04,-0.71 0.33,-0.33 0.58,-0.7 0.73,-1.09 0.14,-0.39 0.18,-0.77 0.09,-1.15 -0.09,-0.37 -0.26,-0.69 -0.51,-0.94 -0.19,-0.19 -0.4,-0.32 -0.62,-0.39 -0.23,-0.07 -0.45,-0.09 -0.67,-0.06 l 1.61,-1.61 z m -2.39,3.4 c 0.43,-0.42 0.82,-0.65 1.2,-0.68 0.37,-0.03 0.68,0.07 0.93,0.32 0.25,0.25 0.36,0.57 0.32,0.95 -0.03,0.39 -0.27,0.8 -0.71,1.25 -0.42,0.42 -0.82,0.64 -1.2,0.68 -0.39,0.04 -0.7,-0.06 -0.94,-0.31 -0.24,-0.23 -0.34,-0.56 -0.3,-0.96 0.04,-0.41 0.28,-0.82 0.7,-1.25 z m 3.1,2.58 -0.56,0.56 1.72,1.72 0.56,-0.56 z m 5.66,2.92 -0.56,-0.56 -3.56,3.57 c -0.01,-0.27 -0.06,-0.57 -0.15,-0.92 -0.09,-0.35 -0.19,-0.64 -0.3,-0.88 l -0.54,0.54 c 0.17,0.46 0.26,0.92 0.29,1.36 0.02,0.44 -0.01,0.81 -0.11,1.1 l 0.36,0.37 z m 0.49,2.6 0.49,0.58 c 0.3,-0.2 0.57,-0.3 0.81,-0.29 0.24,0.02 0.46,0.13 0.66,0.33 0.18,0.17 0.29,0.36 0.34,0.57 0.05,0.21 0.05,0.42 0,0.63 -0.05,0.22 -0.16,0.46 -0.32,0.74 -0.17,0.28 -0.37,0.54 -0.6,0.77 -0.03,0.02 -0.07,0.06 -0.12,0.11 0.07,-0.29 0.06,-0.59 -0.02,-0.89 -0.09,-0.31 -0.24,-0.57 -0.47,-0.8 -0.37,-0.38 -0.83,-0.56 -1.36,-0.55 -0.54,0.02 -1.03,0.25 -1.48,0.69 -0.46,0.47 -0.69,0.97 -0.7,1.53 -0.01,0.55 0.19,1.03 0.6,1.44 0.29,0.3 0.64,0.49 1.05,0.58 0.4,0.08 0.82,0.04 1.24,-0.12 0.42,-0.17 0.91,-0.54 1.47,-1.1 0.59,-0.58 0.99,-1.1 1.2,-1.58 0.22,-0.47 0.3,-0.92 0.23,-1.35 -0.07,-0.43 -0.27,-0.81 -0.61,-1.15 -0.36,-0.35 -0.75,-0.54 -1.17,-0.57 -0.42,-0.03 -0.84,0.11 -1.24,0.43 z m 0.28,4.3 c -0.32,0.32 -0.66,0.49 -1.02,0.5 -0.36,0.02 -0.66,-0.09 -0.9,-0.33 -0.25,-0.25 -0.36,-0.57 -0.35,-0.95 0.02,-0.39 0.19,-0.75 0.52,-1.07 0.29,-0.29 0.61,-0.44 0.97,-0.44 0.35,-0.01 0.66,0.11 0.92,0.37 0.25,0.26 0.38,0.56 0.36,0.91 -0.01,0.35 -0.18,0.68 -0.5,1.01 z"
             style="fill:#000000;fill-opacity:1;fill-rule:nonzero;stroke:none"
             id="path268" /></g></g><g
         id="g270"><g
           id="g272"
           clip-path="url(#clipPath276)"><path
             d="m 483.76,139.85 0.49,0.63 c 0.38,-0.25 0.72,-0.37 1.01,-0.35 0.3,0.01 0.55,0.13 0.78,0.35 0.26,0.26 0.39,0.58 0.39,0.94 0,0.36 -0.14,0.68 -0.41,0.95 -0.25,0.26 -0.55,0.38 -0.88,0.38 -0.34,0 -0.64,-0.13 -0.89,-0.39 -0.11,-0.1 -0.22,-0.26 -0.34,-0.45 l -0.43,0.55 c 0.05,0.03 0.08,0.06 0.1,0.08 0.24,0.24 0.39,0.52 0.46,0.83 0.06,0.32 -0.03,0.6 -0.29,0.86 -0.21,0.21 -0.45,0.31 -0.72,0.3 -0.27,0 -0.52,-0.11 -0.74,-0.33 -0.22,-0.22 -0.33,-0.47 -0.34,-0.75 -0.01,-0.28 0.11,-0.58 0.34,-0.89 l -0.66,-0.46 c -0.31,0.44 -0.44,0.88 -0.41,1.33 0.04,0.45 0.24,0.86 0.6,1.22 0.25,0.25 0.53,0.42 0.85,0.52 0.31,0.11 0.62,0.12 0.91,0.05 0.3,-0.08 0.55,-0.22 0.76,-0.42 0.19,-0.2 0.32,-0.43 0.38,-0.7 0.05,-0.27 0.02,-0.55 -0.09,-0.85 0.33,0.2 0.67,0.28 1.02,0.24 0.34,-0.05 0.66,-0.22 0.95,-0.51 0.4,-0.4 0.59,-0.88 0.58,-1.45 -0.01,-0.57 -0.24,-1.07 -0.68,-1.52 -0.4,-0.4 -0.86,-0.61 -1.36,-0.63 -0.5,-0.03 -0.96,0.13 -1.38,0.47 z m 6.87,4.46 -0.56,-0.56 -3.56,3.57 c -0.01,-0.26 -0.05,-0.57 -0.14,-0.92 -0.09,-0.34 -0.19,-0.64 -0.3,-0.87 l -0.54,0.54 c 0.16,0.46 0.26,0.91 0.28,1.35 0.03,0.44 -0.01,0.81 -0.11,1.11 l 0.36,0.36 z m -0.05,2.68 -0.57,0.56 1.72,1.72 0.57,-0.56 z m 1.37,3.08 c -0.75,0.76 -1.14,1.55 -1.16,2.38 -0.03,0.84 0.28,1.58 0.93,2.22 0.42,0.42 0.9,0.7 1.44,0.83 0.53,0.14 1.07,0.12 1.61,-0.06 0.53,-0.19 1.03,-0.51 1.49,-0.96 0.46,-0.46 0.78,-0.97 0.96,-1.52 0.17,-0.55 0.19,-1.09 0.03,-1.62 -0.15,-0.53 -0.43,-0.99 -0.82,-1.39 -0.43,-0.43 -0.92,-0.71 -1.46,-0.84 -0.55,-0.13 -1.09,-0.1 -1.62,0.08 -0.53,0.19 -1,0.48 -1.4,0.88 z m 0.63,0.61 c 0.55,-0.55 1.13,-0.83 1.74,-0.85 0.61,-0.02 1.14,0.19 1.59,0.63 0.45,0.46 0.67,0.99 0.64,1.6 -0.03,0.62 -0.33,1.21 -0.92,1.8 -0.37,0.37 -0.76,0.63 -1.16,0.78 -0.4,0.15 -0.8,0.19 -1.19,0.1 -0.39,-0.09 -0.74,-0.29 -1.04,-0.59 -0.43,-0.42 -0.65,-0.94 -0.66,-1.54 -0.02,-0.6 0.32,-1.24 1,-1.93 z m 7.65,5.65 0.63,0.48 c 0.31,-0.44 0.46,-0.89 0.42,-1.35 -0.03,-0.46 -0.23,-0.88 -0.59,-1.24 -0.45,-0.45 -0.96,-0.66 -1.53,-0.64 -0.57,0.02 -1.13,0.3 -1.68,0.86 -0.36,0.35 -0.61,0.72 -0.76,1.11 -0.15,0.38 -0.17,0.76 -0.06,1.14 0.11,0.37 0.3,0.7 0.59,0.99 0.36,0.36 0.74,0.56 1.15,0.6 0.41,0.05 0.81,-0.06 1.21,-0.33 l -0.46,-0.63 c -0.27,0.17 -0.53,0.25 -0.78,0.23 -0.24,-0.02 -0.45,-0.12 -0.64,-0.31 -0.28,-0.28 -0.41,-0.61 -0.38,-0.99 0.02,-0.38 0.25,-0.79 0.69,-1.22 0.44,-0.45 0.85,-0.68 1.22,-0.72 0.37,-0.03 0.69,0.09 0.97,0.37 0.22,0.22 0.33,0.47 0.35,0.75 0.01,0.28 -0.11,0.58 -0.35,0.9 z m 2.92,1.5 0.57,-0.41 c -0.12,-0.19 -0.24,-0.35 -0.37,-0.48 -0.2,-0.2 -0.39,-0.32 -0.57,-0.37 -0.17,-0.05 -0.34,-0.04 -0.49,0.02 -0.15,0.05 -0.39,0.25 -0.72,0.59 l -1.9,1.9 -0.41,-0.41 -0.44,0.43 0.41,0.41 -0.82,0.82 0.22,0.89 1.16,-1.15 0.56,0.56 0.44,-0.44 -0.57,-0.56 1.93,-1.93 c 0.16,-0.16 0.27,-0.25 0.34,-0.28 0.06,-0.02 0.13,-0.03 0.2,-0.01 0.08,0.02 0.15,0.07 0.24,0.15 0.06,0.07 0.13,0.15 0.22,0.27 z m -0.52,1.21 -0.57,0.56 1.72,1.72 0.56,-0.56 z m 5.65,2.92 -0.56,-0.56 -3.56,3.57 c -0.01,-0.26 -0.05,-0.57 -0.14,-0.92 -0.09,-0.34 -0.19,-0.64 -0.3,-0.87 l -0.54,0.54 c 0.16,0.46 0.26,0.91 0.28,1.35 0.03,0.44 -0.01,0.81 -0.11,1.11 l 0.36,0.36 z m 0.49,2.6 0.49,0.58 c 0.3,-0.2 0.57,-0.3 0.81,-0.28 0.24,0.01 0.46,0.12 0.67,0.32 0.17,0.17 0.28,0.36 0.33,0.57 0.05,0.21 0.05,0.42 0,0.63 -0.05,0.22 -0.15,0.46 -0.32,0.74 -0.17,0.28 -0.37,0.54 -0.6,0.77 -0.03,0.03 -0.07,0.06 -0.12,0.11 0.07,-0.29 0.06,-0.59 -0.02,-0.89 -0.08,-0.31 -0.24,-0.57 -0.47,-0.8 -0.37,-0.37 -0.83,-0.56 -1.36,-0.54 -0.54,0.01 -1.03,0.24 -1.48,0.69 -0.46,0.46 -0.69,0.97 -0.7,1.52 -0.01,0.55 0.19,1.04 0.6,1.45 0.3,0.29 0.65,0.48 1.05,0.57 0.41,0.09 0.82,0.05 1.24,-0.12 0.43,-0.17 0.92,-0.53 1.48,-1.09 0.58,-0.59 0.98,-1.11 1.2,-1.58 0.21,-0.47 0.29,-0.93 0.22,-1.36 -0.07,-0.42 -0.27,-0.81 -0.61,-1.14 -0.35,-0.36 -0.74,-0.55 -1.17,-0.58 -0.42,-0.03 -0.83,0.11 -1.24,0.43 z m 0.28,4.3 c -0.32,0.32 -0.66,0.49 -1.02,0.51 -0.36,0.01 -0.66,-0.1 -0.9,-0.34 -0.25,-0.25 -0.36,-0.56 -0.34,-0.95 0.01,-0.39 0.19,-0.74 0.51,-1.07 0.29,-0.29 0.61,-0.44 0.97,-0.44 0.35,-0.01 0.66,0.12 0.92,0.37 0.26,0.26 0.38,0.57 0.36,0.91 -0.01,0.35 -0.18,0.69 -0.5,1.01 z"
             style="fill:#000000;fill-opacity:1;fill-rule:nonzero;stroke:none"
             id="path278" /></g></g><g
         id="g280"><g
           id="g282"
           clip-path="url(#clipPath286)"><path
             d="m 516.31,140.7 0.53,-0.53 -3.01,-3.02 c -0.13,0.13 -0.24,0.29 -0.32,0.46 -0.13,0.28 -0.21,0.6 -0.24,0.97 -0.03,0.37 -0.01,0.84 0.04,1.42 0.09,0.9 0.11,1.56 0.04,1.97 -0.06,0.41 -0.2,0.72 -0.41,0.94 -0.22,0.22 -0.49,0.33 -0.8,0.32 -0.31,-0.01 -0.59,-0.14 -0.84,-0.39 -0.27,-0.27 -0.41,-0.57 -0.41,-0.89 0,-0.32 0.14,-0.63 0.43,-0.92 l -0.64,-0.51 c -0.39,0.46 -0.57,0.94 -0.53,1.42 0.03,0.48 0.26,0.94 0.69,1.37 0.44,0.44 0.91,0.66 1.41,0.68 0.49,0.01 0.92,-0.16 1.28,-0.52 0.18,-0.18 0.32,-0.4 0.43,-0.65 0.1,-0.25 0.16,-0.56 0.18,-0.93 0.02,-0.37 0,-0.92 -0.06,-1.66 -0.05,-0.62 -0.08,-1.03 -0.07,-1.22 0,-0.2 0.02,-0.38 0.06,-0.54 z m 0.62,6.43 -0.51,-0.6 c -0.27,0.17 -0.5,0.26 -0.69,0.27 -0.31,0.01 -0.58,-0.1 -0.8,-0.32 -0.18,-0.18 -0.28,-0.39 -0.32,-0.62 -0.05,-0.3 0,-0.63 0.15,-0.98 0.14,-0.35 0.44,-0.75 0.89,-1.21 -0.07,0.34 -0.06,0.66 0.04,0.95 0.09,0.3 0.25,0.55 0.46,0.76 0.37,0.38 0.83,0.56 1.37,0.54 0.53,-0.01 1.02,-0.23 1.45,-0.67 0.29,-0.28 0.49,-0.61 0.62,-0.98 0.12,-0.37 0.14,-0.73 0.05,-1.07 -0.08,-0.35 -0.26,-0.66 -0.54,-0.93 -0.46,-0.47 -1.01,-0.68 -1.65,-0.63 -0.64,0.05 -1.35,0.47 -2.14,1.26 -0.88,0.88 -1.36,1.68 -1.43,2.4 -0.06,0.64 0.14,1.19 0.62,1.67 0.36,0.36 0.76,0.55 1.19,0.58 0.43,0.03 0.84,-0.11 1.24,-0.42 z m -0.32,-4.25 c 0.19,-0.19 0.42,-0.33 0.68,-0.43 0.26,-0.09 0.5,-0.11 0.74,-0.06 0.24,0.06 0.44,0.17 0.6,0.33 0.24,0.24 0.35,0.53 0.33,0.89 -0.02,0.36 -0.2,0.71 -0.52,1.04 -0.32,0.31 -0.65,0.47 -1,0.49 -0.35,0.01 -0.65,-0.11 -0.91,-0.36 -0.25,-0.26 -0.37,-0.56 -0.37,-0.92 0.01,-0.36 0.16,-0.68 0.45,-0.98 z m 2.91,2.69 -0.56,0.57 1.71,1.71 0.57,-0.56 z m 3.78,1.05 -4.56,4.55 1.57,1.57 c 0.35,0.36 0.65,0.6 0.88,0.75 0.32,0.2 0.65,0.31 0.99,0.34 0.44,0.04 0.88,-0.04 1.32,-0.24 0.43,-0.2 0.85,-0.5 1.26,-0.9 0.35,-0.35 0.61,-0.7 0.8,-1.05 0.18,-0.34 0.3,-0.67 0.35,-0.97 0.05,-0.3 0.05,-0.58 0,-0.83 -0.05,-0.25 -0.16,-0.51 -0.32,-0.77 -0.16,-0.26 -0.37,-0.53 -0.65,-0.81 z m 0.06,1.14 0.97,0.97 c 0.3,0.3 0.51,0.56 0.63,0.79 0.11,0.23 0.17,0.44 0.17,0.65 0,0.28 -0.08,0.58 -0.24,0.91 -0.16,0.32 -0.42,0.65 -0.76,0.99 -0.48,0.48 -0.92,0.77 -1.33,0.87 -0.42,0.1 -0.78,0.08 -1.09,-0.06 -0.22,-0.1 -0.51,-0.33 -0.87,-0.69 l -0.96,-0.95 z m 5.73,6.77 0.65,0.51 c 0.24,-0.43 0.34,-0.86 0.28,-1.29 -0.06,-0.44 -0.28,-0.84 -0.67,-1.23 -0.48,-0.48 -1.01,-0.71 -1.59,-0.7 -0.58,0.02 -1.14,0.29 -1.68,0.83 -0.55,0.55 -0.84,1.13 -0.86,1.72 -0.02,0.59 0.2,1.12 0.65,1.57 0.44,0.44 0.95,0.65 1.53,0.63 0.58,-0.02 1.15,-0.3 1.69,-0.85 0.03,-0.03 0.08,-0.08 0.15,-0.15 l -2.46,-2.46 c 0.38,-0.34 0.76,-0.52 1.14,-0.52 0.37,-0.01 0.7,0.12 0.98,0.4 0.2,0.2 0.32,0.43 0.36,0.68 0.04,0.26 -0.02,0.54 -0.17,0.86 z m -2.74,-0.93 1.84,1.84 c -0.3,0.26 -0.58,0.39 -0.84,0.42 -0.39,0.03 -0.73,-0.09 -1.01,-0.37 -0.26,-0.26 -0.39,-0.56 -0.39,-0.91 -0.01,-0.35 0.13,-0.67 0.4,-0.98 z m 5.97,4.45 0.62,0.48 c 0.32,-0.44 0.46,-0.89 0.43,-1.35 -0.04,-0.46 -0.23,-0.87 -0.59,-1.23 -0.46,-0.46 -0.97,-0.67 -1.54,-0.65 -0.57,0.02 -1.13,0.31 -1.68,0.86 -0.35,0.35 -0.61,0.72 -0.76,1.11 -0.15,0.39 -0.17,0.77 -0.06,1.14 0.11,0.38 0.31,0.7 0.59,0.99 0.36,0.36 0.74,0.56 1.15,0.61 0.41,0.04 0.81,-0.07 1.21,-0.34 l -0.46,-0.63 c -0.27,0.17 -0.53,0.25 -0.77,0.23 -0.25,-0.02 -0.46,-0.12 -0.65,-0.31 -0.28,-0.28 -0.41,-0.61 -0.38,-0.99 0.02,-0.38 0.25,-0.78 0.69,-1.22 0.44,-0.45 0.85,-0.68 1.22,-0.71 0.37,-0.03 0.7,0.09 0.97,0.36 0.22,0.22 0.33,0.47 0.35,0.75 0.01,0.28 -0.1,0.58 -0.34,0.9 z m 0.69,1.02 -0.56,0.56 1.72,1.72 0.56,-0.57 z m 5.66,2.92 -0.56,-0.56 -3.57,3.56 c 0,-0.26 -0.05,-0.57 -0.14,-0.91 -0.09,-0.35 -0.19,-0.64 -0.3,-0.88 l -0.54,0.54 c 0.17,0.46 0.26,0.91 0.29,1.36 0.02,0.44 -0.02,0.81 -0.12,1.1 l 0.36,0.36 z m 0.4,2.51 0.49,0.58 c 0.3,-0.2 0.57,-0.3 0.81,-0.28 0.24,0.01 0.46,0.12 0.66,0.32 0.18,0.17 0.29,0.36 0.34,0.57 0.05,0.21 0.05,0.42 0,0.63 -0.05,0.22 -0.16,0.46 -0.32,0.74 -0.17,0.28 -0.37,0.54 -0.6,0.77 -0.03,0.03 -0.07,0.06 -0.12,0.11 0.07,-0.29 0.06,-0.59 -0.02,-0.89 -0.09,-0.31 -0.24,-0.57 -0.47,-0.8 -0.37,-0.37 -0.83,-0.56 -1.36,-0.54 -0.54,0.01 -1.03,0.24 -1.48,0.69 -0.46,0.46 -0.69,0.97 -0.7,1.52 -0.01,0.55 0.19,1.04 0.6,1.45 0.29,0.29 0.65,0.48 1.05,0.57 0.41,0.09 0.82,0.05 1.24,-0.12 0.42,-0.17 0.92,-0.53 1.47,-1.09 0.59,-0.59 0.99,-1.11 1.21,-1.58 0.21,-0.47 0.29,-0.93 0.22,-1.36 -0.07,-0.42 -0.27,-0.81 -0.61,-1.14 -0.35,-0.36 -0.74,-0.55 -1.17,-0.58 -0.42,-0.03 -0.84,0.11 -1.24,0.43 z m 0.28,4.3 c -0.32,0.32 -0.66,0.49 -1.02,0.51 -0.36,0.01 -0.66,-0.1 -0.9,-0.34 -0.25,-0.25 -0.36,-0.56 -0.35,-0.95 0.02,-0.39 0.19,-0.74 0.52,-1.07 0.29,-0.29 0.61,-0.44 0.97,-0.44 0.35,-0.01 0.66,0.12 0.92,0.37 0.26,0.26 0.38,0.57 0.36,0.91 -0.01,0.35 -0.18,0.69 -0.5,1.01 z"
             style="fill:#000000;fill-opacity:1;fill-rule:nonzero;stroke:none"
             id="path288" /></g></g><g
         id="g290"><g
           id="g292"
           clip-path="url(#clipPath296)"><path
             d="m 547.02,141.05 0.53,-0.53 -3.01,-3.02 c -0.14,0.13 -0.24,0.29 -0.32,0.46 -0.13,0.28 -0.21,0.6 -0.24,0.97 -0.03,0.37 -0.01,0.84 0.04,1.42 0.09,0.9 0.11,1.56 0.04,1.97 -0.06,0.41 -0.2,0.72 -0.41,0.94 -0.22,0.22 -0.49,0.33 -0.8,0.32 -0.31,-0.01 -0.59,-0.14 -0.85,-0.39 -0.26,-0.27 -0.4,-0.57 -0.4,-0.89 0,-0.32 0.14,-0.63 0.43,-0.92 l -0.64,-0.51 c -0.39,0.46 -0.57,0.94 -0.53,1.42 0.03,0.48 0.26,0.94 0.69,1.37 0.44,0.44 0.91,0.66 1.41,0.68 0.49,0.01 0.92,-0.16 1.28,-0.52 0.18,-0.18 0.32,-0.4 0.42,-0.65 0.11,-0.25 0.17,-0.56 0.19,-0.93 0.02,-0.37 0,-0.92 -0.06,-1.66 -0.06,-0.62 -0.08,-1.03 -0.07,-1.22 0,-0.2 0.02,-0.38 0.06,-0.54 z m -1.09,2.34 c -0.54,0.53 -0.91,1.02 -1.13,1.46 -0.22,0.44 -0.31,0.86 -0.27,1.26 0.04,0.39 0.23,0.76 0.56,1.09 0.24,0.24 0.51,0.41 0.79,0.49 0.28,0.09 0.58,0.1 0.88,0.04 0.31,-0.07 0.63,-0.2 0.96,-0.4 0.34,-0.2 0.73,-0.52 1.18,-0.97 0.54,-0.54 0.91,-1.02 1.13,-1.46 0.22,-0.44 0.31,-0.86 0.27,-1.26 -0.04,-0.39 -0.22,-0.76 -0.56,-1.09 -0.44,-0.44 -0.94,-0.63 -1.51,-0.57 -0.68,0.08 -1.44,0.55 -2.3,1.41 z m 0.58,0.57 c 0.74,-0.75 1.33,-1.16 1.75,-1.23 0.43,-0.07 0.76,0.02 1.02,0.28 0.26,0.25 0.35,0.59 0.28,1.02 -0.08,0.42 -0.49,1.01 -1.23,1.75 -0.75,0.75 -1.34,1.16 -1.76,1.23 -0.42,0.08 -0.76,-0.02 -1.02,-0.28 -0.26,-0.26 -0.36,-0.57 -0.29,-0.94 0.08,-0.47 0.5,-1.08 1.25,-1.83 z m 3.72,1.96 -0.56,0.57 1.71,1.71 0.57,-0.56 z m 3.81,1.08 -4.56,4.55 3.07,3.08 0.54,-0.54 -2.47,-2.47 1.41,-1.41 2.14,2.14 0.54,-0.54 -2.14,-2.14 2.07,-2.07 z m 4.99,7.12 0.65,0.51 c 0.25,-0.43 0.34,-0.86 0.28,-1.3 -0.06,-0.43 -0.28,-0.84 -0.66,-1.22 -0.48,-0.48 -1.02,-0.72 -1.6,-0.7 -0.58,0.01 -1.13,0.29 -1.67,0.82 -0.56,0.56 -0.84,1.13 -0.86,1.73 -0.03,0.59 0.19,1.11 0.65,1.57 0.44,0.44 0.95,0.65 1.53,0.63 0.58,-0.02 1.14,-0.3 1.69,-0.85 0.03,-0.03 0.08,-0.08 0.14,-0.15 l -2.46,-2.46 c 0.39,-0.34 0.77,-0.52 1.14,-0.53 0.38,-0.01 0.71,0.13 0.98,0.4 0.21,0.21 0.33,0.44 0.36,0.69 0.04,0.25 -0.01,0.54 -0.17,0.86 z m -2.74,-0.93 1.85,1.84 c -0.31,0.25 -0.59,0.39 -0.84,0.41 -0.39,0.04 -0.73,-0.08 -1.02,-0.37 -0.25,-0.25 -0.38,-0.55 -0.39,-0.9 0,-0.35 0.13,-0.68 0.4,-0.98 z m 5.63,1.69 -0.52,-0.52 -4.56,4.55 0.56,0.56 1.63,-1.62 c -0.06,0.53 0.09,0.98 0.46,1.35 0.2,0.2 0.43,0.35 0.7,0.45 0.26,0.1 0.52,0.13 0.79,0.1 0.26,-0.03 0.53,-0.11 0.81,-0.26 0.28,-0.14 0.53,-0.33 0.77,-0.57 0.57,-0.56 0.86,-1.14 0.89,-1.73 0.03,-0.59 -0.15,-1.08 -0.54,-1.47 -0.39,-0.39 -0.86,-0.53 -1.41,-0.43 z m -1.68,1.67 c 0.39,-0.4 0.73,-0.63 1.02,-0.7 0.46,-0.11 0.84,-0.02 1.14,0.28 0.25,0.25 0.35,0.57 0.32,0.96 -0.04,0.39 -0.26,0.79 -0.68,1.21 -0.44,0.43 -0.84,0.67 -1.22,0.7 -0.37,0.03 -0.68,-0.07 -0.92,-0.31 -0.25,-0.25 -0.35,-0.56 -0.32,-0.95 0.04,-0.4 0.25,-0.79 0.66,-1.19 z m 3.14,2.53 -0.56,0.56 1.72,1.72 0.56,-0.57 z m 5.95,4.29 0.54,-0.54 -3.01,-3.01 c -0.14,0.13 -0.25,0.28 -0.32,0.45 -0.13,0.29 -0.21,0.61 -0.24,0.98 -0.03,0.37 -0.02,0.84 0.04,1.42 0.09,0.9 0.1,1.56 0.04,1.97 -0.06,0.41 -0.2,0.72 -0.41,0.93 -0.22,0.22 -0.49,0.33 -0.8,0.33 -0.31,-0.01 -0.59,-0.14 -0.85,-0.4 -0.27,-0.27 -0.4,-0.56 -0.4,-0.88 0,-0.33 0.14,-0.63 0.42,-0.92 l -0.63,-0.52 c -0.39,0.47 -0.57,0.95 -0.54,1.43 0.03,0.48 0.27,0.94 0.7,1.37 0.44,0.44 0.9,0.66 1.4,0.67 0.5,0.02 0.93,-0.16 1.29,-0.52 0.18,-0.18 0.32,-0.39 0.42,-0.64 0.1,-0.26 0.16,-0.56 0.19,-0.93 0.02,-0.37 0,-0.92 -0.06,-1.67 -0.06,-0.61 -0.08,-1.02 -0.08,-1.22 0.01,-0.19 0.03,-0.37 0.07,-0.54 z m -1.17,2.25 c -0.54,0.54 -0.91,1.02 -1.13,1.46 -0.22,0.44 -0.31,0.86 -0.27,1.26 0.04,0.39 0.23,0.76 0.56,1.09 0.25,0.24 0.51,0.41 0.79,0.5 0.28,0.08 0.58,0.09 0.88,0.03 0.31,-0.07 0.63,-0.2 0.96,-0.4 0.34,-0.2 0.73,-0.52 1.18,-0.97 0.54,-0.54 0.91,-1.02 1.13,-1.46 0.22,-0.44 0.31,-0.86 0.27,-1.25 -0.04,-0.4 -0.22,-0.77 -0.56,-1.1 -0.44,-0.44 -0.94,-0.63 -1.5,-0.56 -0.68,0.07 -1.45,0.54 -2.31,1.4 z m 0.58,0.57 c 0.75,-0.75 1.33,-1.16 1.75,-1.23 0.43,-0.07 0.77,0.02 1.02,0.28 0.26,0.26 0.35,0.6 0.28,1.02 -0.08,0.42 -0.49,1.01 -1.23,1.75 -0.75,0.75 -1.34,1.16 -1.76,1.24 -0.42,0.07 -0.76,-0.03 -1.02,-0.29 -0.26,-0.26 -0.36,-0.57 -0.29,-0.94 0.08,-0.47 0.5,-1.08 1.25,-1.83 z"
             style="fill:#000000;fill-opacity:1;fill-rule:nonzero;stroke:none"
             id="path298" /></g></g><path
         d="m 229.29,376.54 h 261.42 v 30.61 H 229.29 Z"
         style="fill:#009ddc;fill-opacity:1;fill-rule:evenodd;stroke:none"
         id="path300" /><g
         id="g302"><g
           id="g304"
           clip-path="url(#clipPath308)"><text
             transform="matrix(1,0,0,-1,232.34,394.34)"
             style="font-variant:normal;font-weight:bold;font-size:12px;font-family:Arial;-inkscape-font-specification:'Arial Bold';writing-mode:lr-tb;fill:#ffffff;fill-opacity:1;fill-rule:nonzero;stroke:none"
             id="text312"><tspan
               x="0 11.16 18.492001 23.16 26.496 33.827999 37.080002 45.743999 53.076 60.360001 64.356003 71.028 74.363998 81.695999 88.428001 93.096001 96.431999 99.816002 107.148 114.48 121.152 127.884"
               y="0"
               id="tspan310">World Container Index </tspan></text>
</g></g><g
         id="g314"><g
           id="g316"
           clip-path="url(#clipPath320)"><text
             transform="matrix(1,0,0,-1,363.53,394.34)"
             style="font-variant:normal;font-weight:bold;font-size:12px;font-family:Arial;-inkscape-font-specification:'Arial Bold';writing-mode:lr-tb;fill:#ffffff;fill-opacity:1;fill-rule:nonzero;stroke:none"
             id="text324"><tspan
               x="0"
               y="0"
               id="tspan322">-</tspan></text>
</g></g><g
         id="g334"><g
           id="g336"
           clip-path="url(#clipPath340)"><text
             transform="matrix(1,0,0,-1,370.37,394.34)"
             style="font-variant:normal;font-weight:bold;font-size:12px;font-family:Arial;-inkscape-font-specification:'Arial Bold';writing-mode:lr-tb;fill:#ffffff;fill-opacity:1;fill-rule:nonzero;stroke:none"
             id="text344"><tspan
               x="0 8.2799997 14.988 21.695999 28.403999 35.112 41.82 48.528 55.860001 59.316002 66.648003 72.996002 76.584 85.248001 89.916 96.587997 106.212 110.88"
               y="0"
               id="tspan342">Assessed by Drewry</tspan></text>
</g></g><g
         id="g354"><g
           id="g356"
           clip-path="url(#clipPath360)"><text
             transform="matrix(1,0,0,-1,304.58,380.52)"
             style="font-variant:normal;font-weight:bold;font-size:12.02400017px;font-family:Arial;-inkscape-font-specification:'Arial Bold';writing-mode:lr-tb;fill:#ffffff;fill-opacity:1;fill-rule:nonzero;stroke:none"
             id="text364"><tspan
               x="0 6.6853442 9.9558716 17.302536 23.987881 28.665216 32.007889 38.741329 45.426674 49.430664 53.386559 56.621017 63.306358 70.653023 77.999687 81.943558 88.628906 92.007645 99.354309 106.03966"
               y="0"
               id="tspan362">$ per 40ft container</tspan></text>
</g></g><path
         d="m 134.35,126.85 h 451.3 v 286.3 h -451.3 z"
         style="fill:none;stroke:#bfbfbf;stroke-width:0.75;stroke-linecap:butt;stroke-linejoin:round;stroke-miterlimit:10;stroke-dasharray:none;stroke-opacity:1"
         id="path374" /></g></g></svg>